<?xml version="1.0" encoding="UTF-8" standalone="no"?>
<!-- Created with Inkscape (http://www.inkscape.org/) -->

<svg
   xmlns:dc="http://purl.org/dc/elements/1.1/"
   xmlns:cc="http://creativecommons.org/ns#"
   xmlns:rdf="http://www.w3.org/1999/02/22-rdf-syntax-ns#"
   xmlns:svg="http://www.w3.org/2000/svg"
   xmlns="http://www.w3.org/2000/svg"
   xmlns:sodipodi="http://sodipodi.sourceforge.net/DTD/sodipodi-0.dtd"
   xmlns:inkscape="http://www.inkscape.org/namespaces/inkscape"
   id="svg4150"
   version="1.1"
   inkscape:version="0.91 r13725"
   width="153.60001"
   height="202.5"
   viewBox="0 0 153.60001 202.5"
   sodipodi:docname="eatlist-logo.svg">
  <metadata
     id="metadata4156">
    <rdf:RDF>
      <cc:Work
         rdf:about="">
        <dc:format>image/svg+xml</dc:format>
        <dc:type
           rdf:resource="http://purl.org/dc/dcmitype/StillImage" />
        <dc:title></dc:title>
      </cc:Work>
    </rdf:RDF>
  </metadata>
  <defs
     id="defs4154" />
  <sodipodi:namedview
     pagecolor="#ffffff"
     bordercolor="#666666"
     borderopacity="1"
     objecttolerance="10"
     gridtolerance="10"
     guidetolerance="10"
     inkscape:pageopacity="0"
     inkscape:pageshadow="2"
     inkscape:window-width="1920"
     inkscape:window-height="1116"
     id="namedview4152"
     showgrid="false"
     inkscape:zoom="3.2963398"
     inkscape:cx="59.499308"
     inkscape:cy="88.996881"
     inkscape:window-x="-8"
     inkscape:window-y="-8"
     inkscape:window-maximized="1"
     inkscape:current-layer="svg4150" />
  <path
     style="fill:#000000"
     d="m 52.70237,199.08296 c -0.180929,-0.0341 -0.828545,-0.0668 -1.439157,-0.0727 -1.161068,-0.0116 -1.708348,-0.0639 -1.855653,-0.17911 -0.04814,-0.0375 -0.307201,-0.0753 -0.575667,-0.0837 -0.36888,-0.0116 -0.514362,-0.0524 -0.595578,-0.16706 -0.05912,-0.0835 -0.177925,-0.1517 -0.264065,-0.1517 -0.08618,0 -0.223983,-0.0722 -0.306334,-0.16071 -0.08235,-0.0883 -0.222581,-0.16177 -0.3116,-0.16309 -0.08904,-7.3e-4 -0.291383,-0.004 -0.449692,-0.007 -0.299004,-0.005 -1.11637,-0.36529 -1.685867,-0.74159 -0.431073,-0.28483 -0.702186,-0.42869 -1.398036,-0.74179 -0.316618,-0.14245 -0.640431,-0.31619 -0.719589,-0.38605 -0.07917,-0.0698 -0.143917,-0.10106 -0.143917,-0.0692 0,0.0318 -0.15788,-0.0457 -0.350866,-0.17231 -0.19298,-0.12648 -0.410157,-0.26711 -0.482624,-0.31233 -0.07243,-0.0452 -0.386431,-0.25275 -0.697676,-0.46115 -0.311237,-0.20841 -0.676912,-0.438 -0.812601,-0.51022 -0.135691,-0.0722 -0.426404,-0.3183 -0.646017,-0.54688 -0.219635,-0.22855 -0.484215,-0.43688 -0.587956,-0.46292 -0.269732,-0.0676 -0.716615,-0.64065 -0.594743,-0.76252 0.06982,-0.0698 0.0685,-0.0935 -0.0058,-0.0935 -0.05426,0 -0.09869,-0.0718 -0.09869,-0.15963 0,-0.0878 -0.04102,-0.18496 -0.09112,-0.21591 -0.0627,-0.0387 -0.07293,-0.27478 -0.03265,-0.7573 0.05295,-0.63633 0.08607,-0.73733 0.358381,-1.09519 0.181445,-0.23844 0.366882,-0.39605 0.469298,-0.3989 0.09309,-0.003 0.241148,-0.059 0.328947,-0.12546 0.184586,-0.13958 0.496783,-0.16354 0.570822,-0.0438 0.02793,0.0452 0.160826,0.0823 0.295265,0.0823 0.135734,0 0.264457,0.0521 0.289412,0.11727 0.0248,0.0645 0.190114,0.14173 0.367498,0.17169 0.20434,0.0345 0.322511,0.0988 0.322511,0.17548 0,0.0665 0.03695,0.0981 0.08212,0.0702 0.04517,-0.028 0.164398,0.007 0.265003,0.0774 0.100556,0.0705 0.24048,0.12807 0.310802,0.12807 0.07025,0 0.330415,0.10647 0.577926,0.23667 1.253982,0.65945 1.967716,0.9436 2.719625,1.08265 0.289572,0.0536 0.6115,0.13022 0.715408,0.1703 0.254582,0.0982 2.538806,0.0933 2.724185,-0.005 0.09474,-0.0507 0.253933,-0.0495 0.445705,0.004 0.203758,0.0563 0.349609,0.055 0.459946,-0.004 0.08883,-0.0476 0.45023,-0.10965 0.803017,-0.13799 0.352788,-0.0284 0.73396,-0.0973 0.847033,-0.15329 0.313768,-0.1553 0.770193,-0.2872 0.99385,-0.2872 0.110509,0 0.389465,-0.0689 0.61992,-0.15315 0.230436,-0.0841 0.560633,-0.17973 0.733751,-0.21219 0.173116,-0.0324 0.471808,-0.1671 0.663739,-0.29915 0.191947,-0.1321 0.457605,-0.24012 0.590358,-0.24012 0.132741,0 0.329622,-0.0693 0.437495,-0.15427 0.10789,-0.0849 0.373587,-0.21447 0.590509,-0.28811 0.216913,-0.0735 0.471706,-0.20592 0.56621,-0.29396 0.09452,-0.088 0.287994,-0.21519 0.429959,-0.28258 0.274081,-0.13007 1.035445,-0.83808 1.035445,-0.96291 0,-0.0409 0.07402,-0.0741 0.164478,-0.0741 0.09046,0 0.164476,-0.037 0.164476,-0.0823 0,-0.0452 0.05548,-0.0821 0.12336,-0.0821 0.06786,0 0.197371,-0.0739 0.287833,-0.16448 0.09046,-0.0905 0.202274,-0.16448 0.248478,-0.16448 0.04619,0 0.126151,-0.0925 0.177663,-0.20559 0.05157,-0.1131 0.125662,-0.20559 0.164753,-0.20559 0.03912,0 0.104279,-0.0874 0.144849,-0.19404 0.04648,-0.12232 0.163872,-0.21203 0.317811,-0.24282 0.159415,-0.032 0.304676,-0.14691 0.41892,-0.33178 0.09616,-0.15561 0.307949,-0.34608 0.470593,-0.42327 0.162659,-0.0771 0.485881,-0.2845 0.718279,-0.46071 0.232406,-0.17619 0.471795,-0.32052 0.531978,-0.32072 0.196674,-7.4e-4 1.012557,-0.59627 1.087772,-0.79412 0.04036,-0.10619 0.124842,-0.19308 0.187728,-0.19308 0.06283,0 0.220152,-0.0833 0.349529,-0.18505 0.129374,-0.10169 0.236138,-0.17035 0.237237,-0.15241 0.0043,0.0657 0.40905,-0.0988 0.522769,-0.21267 0.06451,-0.0645 0.164032,-0.0993 0.221234,-0.0773 0.05724,0.0219 0.188405,-0.0499 0.291564,-0.15974 0.103185,-0.10979 0.227372,-0.19965 0.276021,-0.19965 0.04865,0 0.192667,-0.13065 0.320024,-0.29023 0.127359,-0.15961 0.382699,-0.3909 0.567409,-0.51397 0.460035,-0.30654 0.47354,-0.31341 0.845782,-0.43085 0.290058,-0.0915 0.618306,-0.31299 1.031248,-0.69586 0.06961,-0.0646 0.203604,-0.11166 0.297694,-0.10443 0.255382,0.0192 1.483333,-0.36956 1.801799,-0.57049 0.163946,-0.10348 0.886204,-0.21429 1.387037,-0.21289 0.132785,0 0.315558,-0.0685 0.406135,-0.15276 0.09056,-0.0844 0.203989,-0.15609 0.251999,-0.15933 0.04801,-0.004 1.178989,-0.0207 2.513298,-0.0388 1.334298,-0.0181 2.518527,-0.0383 2.631597,-0.0448 0.239971,-0.0144 6.666296,-0.0115 7.031309,0.003 0.135691,0.005 1.338404,0.0243 2.672723,0.0425 1.334304,0.0181 2.465272,0.0357 2.513304,0.0388 0.04806,0.004 0.16139,0.0748 0.251999,0.15932 0.09051,0.0844 0.273339,0.15316 0.406124,0.15277 0.500833,-7.3e-4 1.223102,0.10951 1.38704,0.21289 0.318463,0.20092 1.546416,0.58971 1.801797,0.57049 0.09411,-0.007 0.228042,0.0399 0.297701,0.10443 0.412929,0.38287 0.741191,0.60436 1.03125,0.69587 0.372265,0.11742 0.385748,0.12433 0.845773,0.43084 0.184716,0.12303 0.440053,0.35436 0.567413,0.51398 0.127345,0.15961 0.271368,0.29021 0.320017,0.29021 0.04878,0 0.172859,0.0898 0.27603,0.19966 0.103174,0.10979 0.234358,0.1817 0.291555,0.15974 0.05727,-0.022 0.156757,0.0129 0.221236,0.0773 0.11828,0.11829 0.401892,0.23585 0.481652,0.19963 0.02375,-0.0116 0.148987,0.0637 0.278361,0.16546 0.12936,0.10169 0.286678,0.18503 0.34953,0.18503 0.06289,0 0.147332,0.0869 0.187725,0.19311 0.0753,0.19783 0.891096,0.79348 1.087769,0.7941 0.06026,0 0.299574,0.14452 0.531993,0.32074 0.23238,0.17621 0.55561,0.38351 0.71826,0.4607 0.16264,0.0773 0.37442,0.26765 0.4706,0.42329 0.11425,0.18484 0.25948,0.29989 0.41891,0.33176 0.15394,0.0308 0.27129,0.12043 0.31782,0.24283 0.0406,0.10677 0.10576,0.19404 0.14484,0.19404 0.0391,0 0.11325,0.0925 0.16475,0.20558 0.0515,0.1131 0.13151,0.20559 0.17768,0.20559 0.0462,0 0.158,0.0739 0.24845,0.16449 0.0905,0.0905 0.22001,0.16447 0.28785,0.16447 0.0677,0 0.12331,0.037 0.12331,0.0823 0,0.0452 0.0739,0.0823 0.16449,0.0823 0.0905,0 0.16447,0.0332 0.16447,0.0741 0,0.12475 0.76135,0.83287 1.03543,0.96291 0.14203,0.0675 0.33548,0.19454 0.42998,0.2826 0.0945,0.088 0.34929,0.22032 0.56619,0.29393 0.21692,0.0737 0.48266,0.20329 0.59054,0.28813 0.10793,0.0849 0.30473,0.15426 0.43748,0.15426 0.13281,0 0.3984,0.10807 0.59035,0.24011 0.19194,0.13209 0.49063,0.26669 0.66375,0.29916 0.17312,0.0324 0.5033,0.12792 0.73376,0.21221 0.23043,0.0841 0.50941,0.15313 0.6199,0.15313 0.22364,0 0.68008,0.13196 0.99385,0.28722 0.1131,0.056 0.49425,0.1249 0.84704,0.15328 0.35279,0.0285 0.71414,0.0905 0.803,0.138 0.11037,0.0591 0.25622,0.0603 0.45994,0.004 0.1918,-0.053 0.35102,-0.0543 0.44571,-0.004 0.18539,0.0993 2.46963,0.10421 2.72419,0.005 0.1039,-0.0402 0.42585,-0.11669 0.71542,-0.17028 0.7519,-0.13901 1.46565,-0.42321 2.71962,-1.08265 0.24752,-0.13022 0.50757,-0.23668 0.57792,-0.23668 0.0703,0 0.2102,-0.0577 0.31081,-0.12806 0.10074,-0.0705 0.21985,-0.10519 0.265,-0.0774 0.0452,0.0279 0.0821,-0.004 0.0821,-0.0702 0,-0.0767 0.11814,-0.14087 0.32251,-0.17547 0.17738,-0.03 0.34276,-0.10721 0.36749,-0.1717 0.025,-0.065 0.15369,-0.11727 0.28941,-0.11727 0.1344,0 0.26733,-0.037 0.29527,-0.0823 0.0739,-0.11971 0.38623,-0.0958 0.57082,0.0438 0.0878,0.0665 0.23583,0.12288 0.32896,0.12547 0.10243,0.004 0.28784,0.16045 0.46928,0.3989 0.27233,0.35785 0.30538,0.45886 0.35838,1.09518 0.0402,0.48252 0.0301,0.71855 -0.0327,0.7573 -0.0501,0.0309 -0.0911,0.12806 -0.0911,0.21593 0,0.0878 -0.0445,0.15961 -0.0987,0.15961 -0.0736,0 -0.075,0.0238 -0.005,0.0935 0.12188,0.12188 -0.32501,0.69484 -0.59474,0.76254 -0.10379,0.0259 -0.36833,0.23435 -0.58796,0.46291 -0.2196,0.22855 -0.51032,0.47466 -0.646,0.54688 -0.13569,0.0722 -0.50137,0.30181 -0.81261,0.5102 -0.31126,0.20841 -0.62519,0.41593 -0.69768,0.46114 -0.0724,0.0452 -0.28964,0.1858 -0.48263,0.31235 -0.19297,0.12663 -0.35085,0.2041 -0.35085,0.1723 0,-0.0318 -0.0648,-7.1e-4 -0.14392,0.0692 -0.0792,0.0698 -0.40296,0.24359 -0.71958,0.38604 -0.69587,0.3131 -0.96697,0.45696 -1.39804,0.7418 -0.56951,0.37628 -1.38687,0.73584 -1.68587,0.74158 -0.15831,0.004 -0.36067,0.007 -0.44971,0.007 -0.0891,7.4e-4 -0.22923,0.0747 -0.31159,0.16309 -0.0823,0.0883 -0.2202,0.16072 -0.30635,0.16072 -0.086,0 -0.20495,0.0684 -0.26406,0.1517 -0.0813,0.11468 -0.22669,0.15542 -0.59558,0.16705 -0.26844,0.008 -0.5275,0.0462 -0.57565,0.0837 -0.17882,0.13972 -0.87237,0.17757 -3.93723,0.21475 -3.19527,0.0387 -3.73688,0.004 -4.24037,-0.27821 -0.20854,-0.11655 -0.3269,-0.13958 -1.16165,-0.2259 -0.29401,-0.0304 -0.60755,-0.10533 -0.69678,-0.1665 -0.0892,-0.0611 -0.28349,-0.11122 -0.43173,-0.11122 -0.14824,0 -0.26954,-0.0332 -0.26954,-0.0741 0,-0.0849 -1.49706,-0.83054 -1.66744,-0.83054 -0.06184,0 -0.257835,-0.10993 -0.435516,-0.24441 -0.177671,-0.1344 -0.387794,-0.24547 -0.466959,-0.24671 -0.07919,-7.4e-4 -0.143914,-0.0348 -0.143914,-0.0744 0,-0.10506 -0.841094,-0.66792 -0.998038,-0.66792 -0.07325,0 -0.176557,-0.0523 -0.229638,-0.11627 -0.09885,-0.11929 -1.070016,-0.60586 -1.547842,-0.77563 -0.492674,-0.17505 -0.801483,-0.30023 -0.842924,-0.34167 -0.07986,-0.0798 -0.410022,-0.24672 -0.488199,-0.24672 -0.116553,0 -0.827614,-0.4934 -0.827614,-0.57429 0,-0.12087 -1.680711,-0.71991 -2.173731,-0.77489 -0.09353,-0.0116 -0.250863,-0.0628 -0.34966,-0.11612 -0.09885,-0.0534 -0.253884,-0.0972 -0.344652,-0.0972 -0.0908,0 -0.18827,-0.0375 -0.216689,-0.0836 -0.02835,-0.0459 -0.08778,-0.0613 -0.131805,-0.0341 -0.04403,0.0272 -0.198774,-0.0403 -0.343832,-0.15007 -0.145044,-0.10979 -0.403072,-0.22171 -0.573384,-0.24879 -0.170311,-0.027 -0.4088,-0.1272 -0.529957,-0.22252 -0.163247,-0.12835 -0.327932,-0.1709 -0.63605,-0.16407 -0.427966,0.0105 -0.909776,-0.0491 -1.033351,-0.12534 -0.03856,-0.0238 -0.09325,-0.005 -0.121734,0.0402 -0.06389,0.10347 -0.508848,0.11079 -0.57147,0.0105 -0.02519,-0.0409 -0.166139,-0.0735 -0.313226,-0.0727 -0.444499,0.003 -1.692698,-0.16889 -1.851541,-0.25391 -0.155304,-0.0832 -1.062447,-0.12921 -2.220109,-0.11266 -0.50502,0.007 -0.713132,0.0437 -0.811583,0.14217 -0.120439,0.12043 -0.145332,0.12073 -0.275238,0.004 -0.07857,-0.0711 -0.199954,-0.10735 -0.2698,-0.0804 -0.06978,0.0269 -0.320319,-0.008 -0.556577,-0.0789 -0.2363,-0.0703 -0.471292,-0.10043 -0.522245,-0.0673 -0.05094,0.0331 -0.425706,0.0637 -0.832779,0.068 -1.545381,0.0164 -2.137126,0.0491 -2.28109,0.12606 -0.158843,0.0851 -1.407029,0.25618 -1.851527,0.25389 -0.147102,-7.2e-4 -0.28805,0.032 -0.313252,0.0727 -0.06262,0.10127 -0.507539,0.0939 -0.571461,-0.0105 -0.02844,-0.0459 -0.08322,-0.0642 -0.121734,-0.0403 -0.123575,0.0762 -0.605389,0.13482 -1.033343,0.12533 -0.30813,-0.007 -0.472811,0.0357 -0.636066,0.16407 -0.121144,0.0953 -0.359639,0.19544 -0.529948,0.22251 -0.170317,0.027 -0.428353,0.139 -0.573397,0.24879 -0.145044,0.10979 -0.299753,0.1773 -0.343825,0.15007 -0.04407,-0.0272 -0.103406,-0.0116 -0.131764,0.0341 -0.02836,0.046 -0.12592,0.0836 -0.216695,0.0836 -0.09079,0 -0.245854,0.0438 -0.344649,0.0972 -0.0988,0.0534 -0.256145,0.10576 -0.34966,0.11612 -0.493015,0.055 -2.173741,0.65411 -2.173741,0.77487 0,0.0809 -0.711007,0.57431 -0.827614,0.57431 -0.07818,0 -0.408302,0.16682 -0.488179,0.24671 -0.0408,0.0409 -0.389298,0.18183 -0.863492,0.34943 -0.457437,0.16169 -1.43002,0.65067 -1.527289,0.76787 -0.0531,0.0639 -0.156398,0.11627 -0.229627,0.11627 -0.15695,0 -0.99804,0.56287 -0.99804,0.66792 0,0.0397 -0.06479,0.0732 -0.143917,0.0744 -0.07917,7.2e-4 -0.289295,0.11223 -0.466956,0.2467 -0.177678,0.13439 -0.373654,0.24443 -0.435525,0.24443 -0.170382,0 -1.667444,0.74565 -1.667444,0.83052 0,0.0409 -0.121302,0.0741 -0.269528,0.0741 -0.148244,0 -0.342539,0.0499 -0.431749,0.11123 -0.08926,0.0612 -0.402767,0.13612 -0.696759,0.1665 -0.865455,0.0895 -0.985683,0.11381 -1.175957,0.23799 -0.09956,0.0649 -0.365995,0.14807 -0.592154,0.18472 -0.226149,0.0367 -0.466702,0.0832 -0.534544,0.10337 -0.221335,0.0659 -3.403998,0.0786 -3.741803,0.0151 z m -7.618148,-28.01014 c -0.241475,-0.097 -0.68846,-0.20088 -0.993297,-0.23092 -0.304837,-0.0301 -0.57736,-0.0919 -0.605595,-0.13771 -0.02814,-0.0457 -0.102522,-0.0633 -0.165101,-0.0393 -0.06262,0.0241 -0.150863,-0.0256 -0.196202,-0.11036 -0.052,-0.097 -0.140195,-0.13886 -0.238689,-0.1131 -0.08596,0.0224 -0.181126,7.3e-4 -0.211526,-0.0487 -0.0304,-0.0491 -0.162244,-0.0894 -0.293025,-0.0894 -0.13077,0 -0.26736,-0.0491 -0.303537,-0.10935 -0.03614,-0.0602 -0.366234,-0.19513 -0.733457,-0.30005 -0.54685,-0.15628 -0.736608,-0.25687 -1.048528,-0.55578 -0.209454,-0.20072 -0.380831,-0.41727 -0.380831,-0.4812 0,-0.0639 -0.07358,-0.11626 -0.163453,-0.11626 -0.09956,0 -0.239846,-0.12102 -0.358881,-0.30961 -0.107459,-0.1703 -0.255984,-0.35984 -0.329979,-0.42126 -0.07402,-0.0614 -0.134541,-0.15955 -0.134541,-0.21803 0,-0.0586 -0.152789,-0.22739 -0.339534,-0.37531 -0.292729,-0.23184 -0.57019,-0.66183 -0.604838,-0.93734 -0.01876,-0.14927 -0.216478,-0.57316 -0.325965,-0.69887 -0.09331,-0.10705 -0.198026,-0.55807 -0.257788,-1.11034 -0.0099,-0.0905 -0.04451,-0.25701 -0.07732,-0.37008 -0.03265,-0.1131 -0.05289,-0.28887 -0.04465,-0.39063 0.0077,-0.10169 0.02188,-0.41633 0.0307,-0.69902 0.0087,-0.28268 0.05178,-0.53976 0.09572,-0.57128 0.044,-0.0316 0.106366,-0.29056 0.138541,-0.57565 0.0772,-0.68369 0.185371,-1.20219 0.313999,-1.50522 0.235563,-0.55504 0.303907,-0.6771 0.621485,-1.11021 0.182426,-0.24877 0.434295,-0.60533 0.559723,-0.79233 0.324016,-0.48312 0.621645,-0.72426 1.131339,-0.91663 0.479655,-0.18102 0.729988,-0.30651 1.078135,-0.54053 0.122381,-0.0823 0.256974,-0.12835 0.299063,-0.10232 0.04211,0.0259 0.12287,-0.008 0.179495,-0.0769 0.07346,-0.0885 0.183387,-0.10893 0.383973,-0.0712 0.216019,0.0406 0.3228,0.0148 0.46148,-0.11123 0.219817,-0.19981 0.503147,-0.27466 1.228962,-0.32468 0.451561,-0.0311 0.564298,-0.0144 0.604452,0.0903 0.03805,0.0992 0.08552,0.10921 0.207539,0.0441 0.11887,-0.0636 0.189823,-0.0531 0.285484,0.0427 0.147727,0.14773 0.453749,0.16737 0.58368,0.0374 0.113488,-0.11352 0.436469,0.0421 0.436469,0.21017 0,0.0629 0.14126,0.17683 0.3139,0.253 0.17263,0.0762 0.385421,0.24529 0.472861,0.37578 0.08739,0.13051 0.19725,0.23739 0.244037,0.23752 0.04684,0 0.15076,0.11138 0.231046,0.24737 0.08026,0.13597 0.249314,0.30056 0.375588,0.36588 0.453566,0.23454 0.939957,0.95127 0.799633,1.17832 -0.02502,0.0405 0.01382,0.25934 0.08641,0.48627 0.121661,0.38045 0.121403,0.43374 -0.0036,0.68376 -0.07435,0.14915 -0.135475,0.31176 -0.135734,0.36133 -7.27e-4,0.22587 -0.180245,0.70051 -0.329077,0.87208 -0.09012,0.1039 -0.163895,0.2432 -0.163895,0.30946 0,0.0663 -0.111029,0.24691 -0.246712,0.40147 -0.135706,0.15455 -0.246711,0.31668 -0.246711,0.36033 0,0.0976 -1.224133,0.9018 -1.372791,0.9018 -0.05898,0 -0.260407,0.14857 -0.447532,0.33017 -0.187146,0.18161 -0.436987,0.35083 -0.5552,0.37604 -0.118222,0.0251 -0.344488,0.10011 -0.502791,0.16637 -0.158309,0.0663 -0.454359,0.12922 -0.6579,0.13986 -0.203532,0.0116 -0.536603,0.0786 -0.740142,0.15092 -0.203531,0.0724 -0.502216,0.17328 -0.663733,0.22424 -0.31603,0.0997 -1.196313,0.10878 -1.5978,0.0164 -0.238311,-0.0548 -0.616816,0.043 -0.616816,0.15935 0,0.20444 0.200849,0.56505 0.334133,0.59991 0.09177,0.0241 0.159298,0.11267 0.159298,0.20898 0,0.0919 0.03411,0.18843 0.07587,0.21424 0.04181,0.0258 0.100765,0.16001 0.131115,0.29823 0.0304,0.13829 0.116481,0.27296 0.191365,0.29939 0.07489,0.0263 0.200928,0.10358 0.280079,0.17166 0.07917,0.068 0.143916,0.0944 0.143916,0.0587 0,-0.0357 0.07676,0.0325 0.170441,0.15172 0.09375,0.11915 0.223272,0.21669 0.287834,0.21669 0.06458,0 0.117387,0.037 0.117387,0.0821 0,0.0452 0.08795,0.0823 0.195531,0.0823 0.107561,0 0.243731,0.0581 0.302649,0.12907 0.05884,0.0711 0.17268,0.11195 0.252835,0.091 0.08017,-0.0208 0.156738,-0.0115 0.170216,0.0219 0.04234,0.10359 1.244372,0.53093 1.545892,0.54949 0.439495,0.027 0.652243,0.0747 0.743925,0.16632 0.05272,0.0528 0.258879,0.0594 0.560443,0.0181 0.456041,-0.0625 0.664127,-0.0559 2.067369,0.0642 0.913186,0.0781 1.201776,0.0607 1.410785,-0.0859 0.253199,-0.17733 1.529914,-0.17939 2.035694,-0.003 0.586465,0.20422 0.644177,0.25595 0.703058,0.63023 0.11415,0.72547 0.07708,0.97709 -0.173059,1.1766 -0.254275,0.20274 -0.961246,0.31698 -1.195972,0.19325 -0.08245,-0.0434 -0.157925,-0.0425 -0.185648,0.003 -0.02567,0.0415 -0.209649,0.0755 -0.408775,0.0755 -0.199125,0 -0.430142,0.0361 -0.513358,0.0805 -0.206499,0.10965 -0.832755,0.14535 -1.162101,0.066 -0.185381,-0.0446 -0.311195,-0.0316 -0.399371,0.0418 -0.09189,0.0762 -0.465015,0.10778 -1.304099,0.11007 -1.015123,0.003 -1.235194,-0.0208 -1.614396,-0.1731 z m -4.403659,-8.22897 c 0.237568,-0.0277 0.469175,-0.007 0.57874,0.0518 0.151372,0.081 0.282481,0.0617 0.765206,-0.11237 0.320399,-0.11555 0.654372,-0.21015 0.742178,-0.21015 0.140268,0 0.558764,-0.18222 0.930671,-0.40528 0.186658,-0.11195 1.005043,-0.476 1.198125,-0.53298 0.263584,-0.0777 1.118522,-1.10849 1.063443,-1.28207 -0.02778,-0.0872 0.0043,-0.16429 0.07971,-0.19335 0.06917,-0.0266 0.125791,-0.0797 0.125791,-0.11814 0,-0.12302 -0.871251,-1.01073 -1.118362,-1.13946 -0.288415,-0.15025 -1.1792,-0.21828 -1.320658,-0.10085 -0.05594,0.0464 -0.256618,0.0958 -0.446113,0.10994 -0.233795,0.0175 -0.453262,0.1095 -0.682832,0.28653 -0.224319,0.17292 -0.402279,0.24878 -0.528123,0.22508 -0.135993,-0.0258 -0.177531,-0.003 -0.146506,0.0771 0.02764,0.0721 -0.01512,0.11282 -0.118567,0.11282 -0.08904,0 -0.161894,0.0388 -0.161894,0.0864 0,0.0476 -0.110984,0.1252 -0.246625,0.17251 -0.135633,0.0472 -0.226057,0.11914 -0.200958,0.15983 0.02509,0.0406 -0.04887,0.11699 -0.164564,0.16966 -0.115618,0.0527 -0.210238,0.12664 -0.210238,0.16432 0,0.0376 -0.263753,0.32758 -0.586109,0.64425 -0.480346,0.47184 -0.568356,0.59711 -0.487714,0.69428 0.07172,0.0865 0.07457,0.16313 0.01094,0.28287 -0.04836,0.0903 -0.08795,0.25188 -0.08795,0.35888 0,0.10706 -0.04443,0.23896 -0.09868,0.29323 -0.172964,0.17296 0.206537,0.37299 0.550988,0.2904 0.09047,-0.0218 0.3427,-0.0602 0.560545,-0.0855 z m 24.110715,6.64295 c -0.09046,-0.0363 -0.471328,-0.0892 -0.846377,-0.11771 -0.631654,-0.0477 -0.811992,-0.10159 -1.715411,-0.5108 -0.142527,-0.0646 -0.285419,-0.11741 -0.317529,-0.11741 -0.14599,0 -0.863717,-0.69215 -1.011254,-0.97519 -0.09024,-0.17312 -0.25557,-0.4135 -0.367427,-0.53419 l -0.203366,-0.21943 -0.565388,0.57639 c -0.31096,0.31704 -0.605914,0.5765 -0.655443,0.57658 -0.04953,0 -0.154025,0.0708 -0.232208,0.15725 -0.07818,0.0864 -0.239913,0.18161 -0.359399,0.21159 -0.119489,0.03 -0.385065,0.1331 -0.590167,0.22916 -0.205112,0.0961 -0.401166,0.16721 -0.435669,0.15812 -0.03454,-0.008 -0.201045,0.0682 -0.370076,0.17173 -0.310808,0.1904 -0.646176,0.2628 -1.170822,0.25275 -0.656264,-0.0129 -1.11269,-0.0527 -1.151324,-0.10106 -0.05403,-0.0676 -0.288129,-0.20824 -0.729284,-0.43787 -0.392648,-0.20443 -1.491128,-1.2604 -1.491128,-1.43344 0,-0.0591 -0.06801,-0.22917 -0.151044,-0.37753 -0.08311,-0.14838 -0.177211,-0.43447 -0.209197,-0.63576 -0.032,-0.20129 -0.0909,-0.40545 -0.130913,-0.45367 -0.09189,-0.1108 -0.317908,-1.43146 -0.338221,-1.97643 -0.0087,-0.22614 0.0087,-0.54069 0.03934,-0.69901 0.03005,-0.15831 0.06844,-0.53872 0.0853,-0.84536 0.01688,-0.30664 0.07566,-0.61174 0.130684,-0.67801 0.05505,-0.0663 0.08057,-0.19468 0.05687,-0.28534 -0.02371,-0.0906 -0.0099,-0.18555 0.03135,-0.21088 0.04102,-0.0253 0.07467,-0.1272 0.07477,-0.22623 0,-0.0992 0.07281,-0.29911 0.161458,-0.44447 0.0909,-0.14909 0.127346,-0.28516 0.08366,-0.3122 -0.04669,-0.0288 -0.04822,-0.10359 -0.0043,-0.18803 0.04043,-0.0771 0.136813,-0.28813 0.214035,-0.46905 0.280951,-0.65831 1.340862,-1.93258 1.607472,-1.93258 0.07555,0 0.183359,-0.0555 0.239673,-0.12332 0.05622,-0.0677 0.154636,-0.12331 0.218542,-0.12331 0.06393,0 0.205351,-0.0585 0.314335,-0.12979 0.108999,-0.0714 0.394484,-0.16097 0.634446,-0.19904 0.239963,-0.038 0.769365,-0.1318 1.176437,-0.20829 1.016986,-0.19112 1.544337,-0.0989 2.73951,0.47904 0.471495,0.22799 1.799128,1.52916 1.87393,1.83658 0.03157,0.12994 0.10746,0.30934 0.168615,0.39856 0.0611,0.0892 0.111071,0.22492 0.111071,0.30155 0,0.0767 0.03993,0.15264 0.08883,0.16893 0.183816,0.0613 0.42796,0.99676 0.418897,1.60513 -0.0043,0.32617 0.0288,0.61635 0.0749,0.6448 0.09835,0.0607 0.01295,1.18653 -0.09903,1.30738 -0.121689,0.13123 -0.08069,1.15115 0.06502,1.61886 0.08037,0.2578 0.242324,0.54072 0.38966,0.68058 0.138684,0.13167 0.289847,0.31502 0.33592,0.40744 0.04603,0.0923 0.305551,0.30425 0.576633,0.47079 l 0.492885,0.30278 1.53806,-0.0546 c 1.383578,-0.0491 1.56151,-0.0718 1.771362,-0.22699 0.128308,-0.0949 0.354583,-0.19912 0.502835,-0.2317 0.497677,-0.10936 0.826616,0.39463 0.793022,1.21489 -0.01593,0.38809 -0.06458,0.53289 -0.260181,0.77463 -0.238056,0.29413 -0.284464,0.32836 -0.68553,0.50581 -0.468134,0.20711 -1.963888,0.49713 -2.549357,0.49433 -0.113086,-7.3e-4 -0.279615,-0.0307 -0.370075,-0.0671 z m -8.733638,-2.33856 c 0.02284,0.0229 0.128438,-0.003 0.234608,-0.0591 0.375676,-0.19613 0.479686,-0.23958 0.573412,-0.23958 0.05208,0 0.339418,-0.19825 0.638445,-0.44058 0.299032,-0.24231 0.643129,-0.50408 0.76466,-0.58171 0.126252,-0.0808 0.244944,-0.2504 0.276945,-0.39614 0.03083,-0.14029 0.116423,-0.35591 0.190244,-0.47923 0.441771,-0.73791 0.58779,-1.01802 0.673239,-1.2914 0.05265,-0.16832 0.166558,-0.49398 0.253207,-0.72368 0.31864,-0.8447 0.418374,-2.18403 0.194564,-2.61314 -0.06734,-0.12908 -0.1035,-0.2652 -0.08048,-0.30247 0.02305,-0.0372 -0.02595,-0.0892 -0.108984,-0.11569 -0.0829,-0.0263 -0.232625,-0.15852 -0.332606,-0.29376 -0.09999,-0.13525 -0.237118,-0.24586 -0.304727,-0.24586 -0.06764,0 -0.158469,-0.0934 -0.201903,-0.2077 -0.04341,-0.11426 -0.144273,-0.23182 -0.224115,-0.26128 -0.07982,-0.0296 -0.16732,-0.0863 -0.194434,-0.12663 -0.02712,-0.0402 -0.286159,-0.077 -0.575666,-0.0817 -0.28949,-0.004 -0.569091,-0.041 -0.621308,-0.0805 -0.145235,-0.10978 -1.356494,0.32282 -1.680007,0.59999 -0.154549,0.13239 -0.347871,0.26223 -0.429618,0.28852 -0.08169,0.0263 -0.183438,0.12792 -0.225956,0.22575 -0.04255,0.0979 -0.113099,0.2335 -0.156832,0.30134 -0.160229,0.24864 -0.414324,0.85713 -0.414324,0.99223 0,0.0765 -0.05549,0.18505 -0.123359,0.24134 -0.06786,0.0563 -0.123359,0.21997 -0.123359,0.36369 0,0.14375 -0.03433,0.29648 -0.07642,0.33944 -0.09946,0.10159 -0.251097,1.93204 -0.173437,2.09296 0.03281,0.0679 0.03498,0.21586 0.0058,0.32895 -0.05164,0.19471 -0.03375,0.26667 0.162572,0.65677 0.04517,0.0898 0.08225,0.22155 0.08225,0.29266 0,0.0711 0.115991,0.27364 0.257767,0.45005 0.141778,0.17645 0.264101,0.38706 0.271832,0.46806 0.0229,0.24021 0.228739,0.59957 0.343441,0.59957 0.05855,0 0.240107,0.0907 0.403413,0.20149 0.229177,0.15553 0.340663,0.18487 0.488624,0.12864 0.105488,-0.0402 0.210404,-0.054 0.233271,-0.0313 z m 37.920201,1.43226 c -0.0495,-0.0514 -0.35461,-0.12188 -0.678052,-0.15641 -0.380855,-0.0407 -0.667893,-0.1213 -0.81462,-0.22892 -0.124612,-0.0914 -0.478286,-0.28951 -0.785957,-0.44035 -0.63628,-0.31196 -1.015437,-0.64453 -1.241393,-1.0889 -0.08591,-0.16877 -0.244776,-0.36501 -0.353199,-0.43604 -0.108495,-0.0711 -0.235049,-0.2105 -0.281411,-0.30989 -0.04648,-0.0994 -0.192572,-0.36577 -0.32491,-0.59193 -0.359473,-0.61433 -0.65254,-1.25932 -0.65254,-1.43615 0,-0.0862 -0.04,-0.26095 -0.08878,-0.38828 l -0.08878,-0.23149 -0.198141,0.2467 c -0.108926,0.13569 -0.352134,0.50575 -0.540361,0.82237 -0.188211,0.31663 -0.484645,0.72331 -0.658741,0.90377 -0.174096,0.18047 -0.316535,0.37474 -0.316535,0.43175 0,0.057 -0.05152,0.10359 -0.114539,0.10359 -0.06302,0 -0.134683,0.0523 -0.159202,0.11625 -0.02461,0.0641 -0.148786,0.16822 -0.276074,0.23164 -0.127345,0.0633 -0.221897,0.15991 -0.21027,0.2144 0.01152,0.0546 -0.07209,0.13455 -0.186054,0.17792 -0.113962,0.0433 -0.245639,0.16278 -0.292648,0.26545 -0.04705,0.10263 -0.240819,0.25977 -0.430715,0.3491 -0.189924,0.0894 -0.422023,0.24142 -0.515784,0.33804 -0.09381,0.0965 -0.297282,0.19984 -0.452299,0.22944 -0.155,0.0297 -0.37435,0.0766 -0.487436,0.10443 -0.1131,0.0278 -0.448543,0.0669 -0.745523,0.0872 -0.423204,0.0288 -0.563154,0.008 -0.647403,-0.0929 -0.05914,-0.0712 -0.156742,-0.12951 -0.216932,-0.12951 -0.137706,0 -1.02174,-0.82534 -1.02174,-0.95383 0,-0.0523 -0.05266,-0.13886 -0.117273,-0.19249 -0.06446,-0.0535 -0.246388,-0.51142 -0.404094,-1.01748 -0.600278,-1.926 -0.619905,-2.03763 -0.667203,-3.79392 -0.02418,-0.90213 -0.07482,-1.67084 -0.112236,-1.70824 -0.08548,-0.0855 -0.03785,-2.00114 0.07424,-2.9838 0.04648,-0.40707 0.103752,-0.98069 0.127201,-1.27469 0.02345,-0.29399 0.0754,-0.62705 0.115546,-0.74012 0.04,-0.11311 0.09612,-0.61268 0.124611,-1.11022 0.02849,-0.49752 0.08548,-0.94545 0.126626,-0.99536 0.04115,-0.0499 0.05324,-0.25346 0.02719,-0.45231 -0.02618,-0.19884 -0.0072,-0.58359 0.04375,-0.85498 0.05022,-0.27138 0.112524,-0.65995 0.138425,-0.86348 0.0259,-0.20355 0.09885,-0.42858 0.161951,-0.50011 0.06317,-0.0715 0.08965,-0.15517 0.059,-0.1859 -0.163636,-0.16366 1.076101,-0.79432 1.494686,-0.76035 0.176269,0.0144 0.278044,0.0841 0.356423,0.24483 0.127776,0.26175 0.212342,1.3775 0.183088,2.41452 -0.0101,0.35952 -0.04317,0.50692 -0.215925,0.96629 -0.03396,0.0905 -0.05223,0.20149 -0.04058,0.24672 0.03209,0.1249 -0.181463,1.22775 -0.246949,1.27467 -0.03152,0.0226 -0.09641,0.72575 -0.144007,1.56252 -0.04778,0.83676 -0.127202,1.72493 -0.176729,1.9737 -0.178241,0.89519 -0.107489,4.36658 0.09151,4.48958 0.03842,0.0238 0.06979,0.16999 0.06979,0.32499 0,0.42873 0.325573,1.73416 0.532318,2.1345 0.146354,0.28336 0.474558,0.68911 0.594695,0.73521 0.163951,0.0629 0.474385,-0.15234 1.134508,-0.78662 0.316622,-0.30421 0.728227,-0.67614 0.914683,-0.82651 0.32186,-0.25957 0.489135,-0.51002 1.030633,-1.54304 0.128928,-0.24598 0.308362,-0.52592 0.398684,-0.62207 0.09037,-0.0961 0.164253,-0.23502 0.164253,-0.3086 0,-0.0735 0.03699,-0.15663 0.08216,-0.18457 0.04533,-0.028 0.08231,-0.10806 0.08231,-0.17798 0,-0.0699 0.111085,-0.29163 0.246705,-0.49269 0.135691,-0.20104 0.246718,-0.43375 0.246718,-0.5171 0,-0.21859 0.191607,-0.27259 1.06121,-0.29912 0.707636,-0.0216 0.79518,-0.007 1.03033,0.17243 0.319457,0.24367 0.504977,0.80741 0.629487,1.9129 0.04965,0.43978 0.122885,0.87361 0.16293,0.96406 0.04015,0.0906 0.127634,0.331 0.194587,0.53454 0.434772,1.32161 1.307065,2.14105 3.101264,2.91332 0.164902,0.071 0.386928,0.12951 0.493423,0.13008 0.106481,7.4e-4 0.482185,0.0233 0.83488,0.0505 0.502834,0.0387 0.671491,0.023 0.781267,-0.0727 0.170397,-0.1487 0.697664,-0.32522 0.898251,-0.30071 0.206198,0.0251 0.695002,-0.20622 0.888135,-0.42043 0.132093,-0.14646 0.159951,-0.28425 0.14772,-0.72935 l -0.01511,-0.54878 0.398209,-0.18269 c 0.566348,-0.25981 0.839768,-0.18884 1.17883,0.30599 0.265743,0.38783 1.826217,1.24756 2.263147,1.24689 1.31458,-0.003 1.7857,-0.0438 2.07614,-0.18414 0.17317,-0.0836 0.3544,-0.1521 0.40272,-0.1521 0.15534,0 0.7085,-0.38819 0.83762,-0.58781 0.20569,-0.31799 0.24682,-0.71096 0.10348,-0.98817 -0.0707,-0.13669 -0.1082,-0.26886 -0.0833,-0.2937 0.0785,-0.0785 -0.67283,-0.43298 -0.91742,-0.43298 -0.12878,0 -0.26949,-0.0354 -0.31282,-0.0789 -0.0433,-0.0433 -0.53876,-0.13857 -1.10093,-0.21176 -0.60797,-0.079 -1.14782,-0.19711 -1.3324,-0.29127 -0.17067,-0.0871 -0.39504,-0.15912 -0.4986,-0.16011 -0.54605,-0.005 -1.442548,-0.74328 -2.461117,-2.02616 -0.621703,-0.78301 -0.968226,-2.27764 -0.739047,-3.18775 0.200342,-0.79568 0.940985,-1.45417 2.148344,-1.91003 0.15833,-0.0598 0.41737,-0.10978 0.57567,-0.11109 0.15832,-7.1e-4 0.52838,-0.0595 0.82237,-0.12964 0.61057,-0.14529 1.11004,-0.10148 1.55421,0.1367 0.16154,0.0866 0.32864,0.15741 0.37134,0.15741 0.0855,0 0.62381,0.56283 0.62381,0.6521 0,0.0306 0.0969,0.24998 0.21509,0.48736 0.19875,0.39882 0.20739,0.45909 0.11382,0.79329 -0.1461,0.52185 -0.32601,0.65291 -0.87242,0.63558 -0.32065,-0.0105 -0.51723,-0.0652 -0.67414,-0.18858 -0.12187,-0.0958 -0.22452,-0.19863 -0.2282,-0.22846 -0.0393,-0.31758 -0.16203,-0.5148 -0.34986,-0.56193 -0.2381,-0.0598 -1.25441,0.0918 -1.50113,0.2238 -0.22191,0.1187 -0.572825,0.849 -0.561183,1.16783 0.02545,0.69654 0.760093,1.74012 1.295753,1.84062 0.16153,0.0302 0.4803,0.14029 0.70841,0.24448 0.5928,0.27068 1.32086,0.44383 1.86629,0.44383 0.25922,0 0.49074,0.0316 0.51452,0.0699 0.0238,0.0384 0.31851,0.0933 0.65495,0.12159 0.54209,0.0457 0.6891,0.0983 1.29119,0.46014 0.68707,0.41302 0.94991,0.71126 1.22389,1.38877 0.22113,0.54687 -0.0216,2.46865 -0.36551,2.89376 -0.055,0.0679 -0.19662,0.28926 -0.31496,0.49205 -0.14799,0.25363 -0.37871,0.4718 -0.73922,0.69901 -0.28826,0.18167 -0.66919,0.43117 -0.84652,0.55442 -0.28076,0.19513 -0.44755,0.23506 -1.29037,0.30894 -0.53235,0.0466 -1.10554,0.0668 -1.27374,0.0448 -0.16819,-0.022 -0.53352,-0.0564 -0.81181,-0.0766 -0.27829,-0.0201 -0.61261,-0.0915 -0.74297,-0.15901 -0.13036,-0.0675 -0.37481,-0.1484 -0.54324,-0.18001 -0.16845,-0.0315 -0.39931,-0.13065 -0.51303,-0.22008 -0.113675,-0.0895 -0.300074,-0.17288 -0.414122,-0.1854 -0.114111,-0.0129 -0.295356,-0.10533 -0.402905,-0.20646 l -0.195537,-0.18371 -0.123597,0.23448 c -0.06804,0.12893 -0.361492,0.46856 -0.65227,0.75469 -0.508475,0.50038 -0.555038,0.52602 -1.219147,0.67187 -0.863126,0.18953 -2.953184,0.304 -3.083162,0.16887 z m -18.623773,-0.11799 c -0.02524,-0.0255 -0.424208,-0.0527 -0.886633,-0.0602 -0.462421,-0.007 -0.860293,-0.0457 -0.884169,-0.0843 -0.02393,-0.0386 -0.110682,-0.0703 -0.19295,-0.0703 -0.08224,0 -0.195612,-0.0555 -0.251933,-0.12331 -0.05622,-0.0679 -0.150761,-0.12333 -0.209926,-0.12333 -0.05912,0 -0.341413,-0.10806 -0.627252,-0.24024 -0.285856,-0.13209 -0.619979,-0.26529 -0.742513,-0.2959 -0.122525,-0.0306 -0.26584,-0.10763 -0.31846,-0.17094 -0.05265,-0.0633 -0.130122,-0.11526 -0.172236,-0.11526 -0.132756,0 -1.163426,-0.87901 -1.51606,-1.29298 -0.185933,-0.21828 -0.366105,-0.48849 -0.40036,-0.60048 -0.03418,-0.11195 -0.111099,-0.25947 -0.170753,-0.32774 -0.08245,-0.0944 -0.110064,-0.56759 -0.115086,-1.97371 -0.0036,-1.01725 -0.02138,-2.21855 -0.0395,-2.66955 -0.01812,-0.45098 0.0022,-0.88582 0.04552,-0.96627 0.0979,-0.18292 -0.06393,-0.53614 -0.188594,-0.41154 -0.05375,0.0538 -0.156047,0.0456 -0.300771,-0.0238 -0.120654,-0.0577 -0.435218,-0.13052 -0.699013,-0.16157 -0.281157,-0.0331 -0.538509,-0.11526 -0.621916,-0.19871 -0.07829,-0.0782 -0.189873,-0.12648 -0.248005,-0.10706 -0.05812,0.0195 -0.280844,-0.13728 -0.494894,-0.34809 l -0.389187,-0.38335 0.212195,-0.44345 c 0.211453,-0.44187 0.213838,-0.44366 0.664519,-0.49757 0.248769,-0.0298 0.507816,-0.0609 0.575657,-0.0692 0.06786,-0.008 0.169684,-0.0441 0.226311,-0.0793 0.05658,-0.0354 0.44324,-0.0568 0.859134,-0.0476 l 0.756209,0.0167 0.100871,-0.27893 c 0.0555,-0.15342 0.103732,-0.43158 0.107128,-0.61813 0.0036,-0.18653 0.06496,-0.5011 0.136584,-0.69901 0.07243,-0.20029 0.150236,-0.76015 0.17524,-1.26256 0.02465,-0.49648 0.115444,-1.21812 0.201671,-1.60362 0.294239,-1.31564 0.473255,-2.55641 0.476936,-3.30567 0.0022,-0.4682 0.03396,-0.58595 0.21559,-0.80182 0.162565,-0.1932 0.280502,-0.25302 0.498828,-0.25302 0.431116,0 0.57461,0.11828 0.772768,0.63702 0.270981,0.70936 0.341063,1.27327 0.235344,1.89353 -0.0365,0.2139 -0.10582,0.90698 -0.154149,1.54021 -0.30947,4.05546 -0.342664,4.68127 -0.258145,4.86674 0.08422,0.18479 0.119532,0.19088 1.111839,0.19088 0.594546,0 1.046223,0.0345 1.075701,0.0821 0.02793,0.0452 0.303156,0.0823 0.611562,0.0823 0.387843,0 0.591056,0.0366 0.65908,0.11842 0.05403,0.0652 0.193648,0.12994 0.31016,0.14392 0.208093,0.025 0.243744,0.0652 0.424076,0.47777 0.04946,0.1131 0.171612,0.30735 0.271542,0.43173 l 0.181707,0.22616 -0.163372,0.2188 c -0.08981,0.12029 -0.235854,0.23745 -0.324445,0.2602 -0.170361,0.0438 -0.254858,0.0442 -2.710446,0.0129 -1.953737,-0.0253 -1.891932,-0.0311 -2.036184,0.18907 -0.134064,0.20463 -0.226433,0.78509 -0.130351,0.81913 0.03388,0.0115 0.03286,0.23229 -0.0022,0.48948 -0.03505,0.2572 -0.03629,0.70106 -0.0022,0.98639 0.03367,0.28529 0.03083,0.55595 -0.0065,0.60143 -0.07785,0.0957 -0.02836,0.65982 0.07501,0.85479 0.03862,0.073 0.116898,0.42312 0.173896,0.77823 0.09607,0.59863 0.131776,0.67503 0.489887,1.04853 0.212449,0.22156 0.414222,0.40286 0.448404,0.40286 0.03419,0 0.211345,0.11813 0.393689,0.26258 0.192115,0.15215 0.446536,0.27163 0.604956,0.28412 0.150389,0.0115 0.389259,0.0814 0.530841,0.15464 0.141591,0.0732 0.448288,0.14827 0.681552,0.16681 0.233286,0.0186 0.627689,0.052 0.876458,0.0743 0.248763,0.0224 0.563325,0.008 0.699021,-0.0302 0.135691,-0.0391 0.46122,-0.11857 0.723407,-0.17674 0.262187,-0.0582 0.495668,-0.13641 0.518849,-0.17394 0.02317,-0.0375 0.133964,-0.0682 0.246143,-0.0682 0.112237,0 0.343242,-0.0711 0.513395,-0.15783 0.228415,-0.11656 0.429146,-0.14936 0.766992,-0.12548 0.647618,0.0457 0.890782,0.15347 0.890782,0.3946 0,0.10864 0.04978,0.2389 0.110654,0.28939 0.1249,0.10358 0.129504,0.79798 0.0072,1.00809 -0.04201,0.0718 -0.2243,0.17859 -0.40523,0.23738 -0.180917,0.0587 -0.428081,0.18003 -0.549225,0.26945 -0.127201,0.0938 -0.290721,0.14419 -0.38687,0.11914 -0.11382,-0.0298 -0.205349,0.0157 -0.289009,0.14333 -0.08417,0.12863 -0.238229,0.20423 -0.493566,0.24252 -0.204127,0.0307 -0.490761,0.11526 -0.636985,0.18827 -0.146224,0.073 -0.434654,0.13958 -0.640958,0.14798 -0.206318,0.008 -0.504638,0.0426 -0.662954,0.0757 -0.158302,0.0332 -0.308466,0.0395 -0.333695,0.0144 z m 39.560982,-1.35982 c -0.15831,-0.0833 -0.44221,-0.17707 -0.63089,-0.20843 -0.18869,-0.0313 -0.36331,-0.10979 -0.38806,-0.17422 -0.0247,-0.0645 -0.11324,-0.11728 -0.19664,-0.11728 -0.0835,0 -0.26037,-0.1141 -0.39321,-0.25345 -0.13282,-0.13943 -0.36404,-0.30496 -0.51375,-0.36795 -0.3658,-0.15383 -1.1469,-0.83004 -1.37117,-1.18703 -0.16966,-0.27005 -0.27766,-0.54529 -0.74254,-1.89225 -0.26751,-0.77509 -0.31225,-1.49959 -0.2941,-4.76235 0.004,-0.56495 -0.0308,-1.06451 -0.0761,-1.11907 -0.0733,-0.0882 -0.84676,-0.22335 -1.27348,-0.22239 -0.0905,0 -0.35903,-0.0739 -0.59683,-0.16497 -0.37026,-0.14159 -0.46037,-0.22118 -0.62776,-0.55443 -0.16598,-0.33044 -0.18753,-0.46223 -0.14302,-0.87427 0.0495,-0.45872 0.0636,-0.48363 0.25769,-0.45721 0.45531,0.062 2.24927,0.10591 2.43382,0.0596 0.19228,-0.0482 0.1975,-0.0716 0.1975,-0.8851 0,-0.45954 0.0352,-0.94918 0.0784,-1.08809 0.0888,-0.28546 0.33995,-1.95333 0.34161,-2.26736 7.2e-4,-0.11311 0.0409,-0.35362 0.0895,-0.53455 0.0486,-0.18092 0.0926,-0.65414 0.0978,-1.05158 0.0116,-0.85602 0.0312,-0.87795 0.79889,-0.87973 0.70063,-7.4e-4 1.04634,0.11814 1.1135,0.38577 0.0684,0.27217 -0.096,2.98315 -0.21591,3.56037 -0.14231,0.68552 -0.20083,2.44912 -0.0859,2.58764 0.0524,0.0632 0.34064,0.13986 0.64479,0.17165 0.30251,0.0316 0.64997,0.10835 0.77209,0.17049 0.12217,0.0622 0.46021,0.11295 0.75125,0.11295 0.29107,0 0.70922,0.0536 0.92927,0.11944 0.22003,0.0656 0.5384,0.14129 0.70743,0.16799 0.34938,0.0551 0.50188,0.26009 0.44625,0.59953 -0.14941,0.91151 -0.19069,0.98001 -0.64649,1.07261 -0.35604,0.0724 -1.81531,0.0567 -2.28643,-0.0245 -0.39935,-0.0689 -0.58428,-0.0776 -0.90461,-0.0429 -0.1131,0.0129 -0.30736,-0.005 -0.43175,-0.0393 -0.22011,-0.06 -0.22657,-0.052 -0.24192,0.29678 -0.008,0.19713 -0.005,0.61748 0.007,0.93409 0.0115,0.31662 -0.0156,0.74021 -0.0613,0.9413 -0.0457,0.20112 -0.059,0.40466 -0.0293,0.45233 0.0297,0.0477 0.0596,0.5356 0.0665,1.08432 0.0144,1.1286 0.14572,1.67514 0.58481,2.42902 0.14933,0.25637 0.27149,0.51676 0.27149,0.57862 0,0.12548 0.63233,0.6411 0.78613,0.6411 0.0542,0 0.14764,0.0594 0.20792,0.1321 0.1957,0.23579 1.00203,0.53551 1.57169,0.58417 0.36773,0.0315 0.81151,-0.003 1.33461,-0.10043 l 0.78368,-0.14751 0.61854,-0.56996 c 0.34019,-0.31347 0.61855,-0.6151 0.61855,-0.6703 0,-0.11929 0.50615,-0.62605 0.62527,-0.62605 0.0456,0 0.20377,-0.0892 0.35149,-0.19816 0.29058,-0.21439 0.55711,-0.194 0.96589,0.0739 0.30685,0.20105 0.25035,0.92225 -0.12519,1.59691 -0.11957,0.21486 -0.96606,1.27176 -1.21289,1.51435 -0.27873,0.27397 -1.29955,0.89967 -1.5915,0.97549 -0.89769,0.23315 -1.44699,0.32051 -2.22041,0.35313 -0.72689,0.0306 -0.90903,0.0129 -1.15133,-0.11498 z M 89.728427,152.73064 c -0.338479,-0.0552 -0.592781,-0.20875 -0.847543,-0.51152 -0.201954,-0.24 -0.230373,-0.34588 -0.248316,-0.92521 -0.0154,-0.49626 0.01727,-0.73903 0.135115,-1.00559 0.240517,-0.54374 0.468529,-0.79092 0.729623,-0.79092 0.125618,0 0.342566,-0.0397 0.482026,-0.0883 0.450803,-0.15716 1.578979,0.22316 1.580736,0.53287 0,0.0496 0.05353,0.19163 0.118279,0.31578 0.21666,0.41533 0.233092,0.88493 0.05108,1.46015 -0.217091,0.68609 -0.547785,0.9466 -1.280013,1.00834 -0.271382,0.0229 -0.595832,0.0249 -0.720975,0.004 z M 37.365394,141.78153 c -0.359128,-0.0348 -0.493757,-0.14332 -0.493757,-0.39753 0,-0.10908 -0.0648,-0.29717 -0.14391,-0.41784 -0.125143,-0.1908 -0.151042,-0.53096 -0.198491,-2.60814 -0.03258,-1.42486 -0.09275,-2.50489 -0.149182,-2.67656 -0.06677,-0.20303 -0.0933,-1.57209 -0.09036,-4.64644 0.0022,-2.39722 -0.01774,-6.07942 -0.04486,-8.18262 -0.08803,-6.85615 -0.01094,-11.69341 0.21658,-13.52808 0.04486,-0.36186 0.121015,-2.36022 0.169371,-4.44083 0.04836,-2.0806 0.101218,-3.94945 0.117459,-4.15299 0.01622,-0.20353 0.04641,-0.62912 0.06699,-0.945735 0.04779,-0.733633 0.18743,-2.117261 0.297375,-2.946111 0.04691,-0.353915 0.105474,-1.02004 0.129993,-1.480277 0.02458,-0.460244 0.07784,-1.243886 0.118553,-1.741425 0.04064,-0.49754 0.0795,-1.237677 0.08641,-1.644747 0.0065,-0.40708 0.03731,-1.176831 0.06764,-1.710552 0.03157,-0.554203 0.0232,-1.002433 -0.01927,-1.045052 -0.04474,-0.04474 -0.04036,-0.117258 0.01094,-0.180907 0.05165,-0.06422 0.09002,-0.75191 0.09714,-1.739462 0.0065,-0.898255 0.04619,-1.697483 0.08826,-1.776067 0.04727,-0.08826 0.04705,-0.172303 -7.12e-4,-0.219873 -0.04779,-0.04779 -0.04582,-0.262887 0.0058,-0.567687 0.04517,-0.269906 0.08301,-0.823788 0.08399,-1.230868 7.27e-4,-0.407079 0.0304,-1.11021 0.06538,-1.562513 0.03498,-0.452309 0.032,-0.912066 -0.0065,-1.021698 -0.03862,-0.109646 -0.04814,-0.299207 -0.02138,-0.421312 0.06029,-0.274633 -0.03805,-0.320067 -0.823229,-0.380177 -0.316611,-0.02422 -0.635557,-0.07599 -0.708773,-0.114955 -0.07325,-0.03906 -0.151829,-0.05222 -0.174761,-0.02931 -0.0229,0.0229 -0.185059,-0.01295 -0.360322,-0.07971 -0.287541,-0.109531 -1.023582,-0.233759 -2.109027,-0.35601 -0.215802,-0.02435 -0.412266,-0.07643 -0.436609,-0.115804 -0.02435,-0.03934 -0.143835,-0.07325 -0.265555,-0.07533 -0.121719,-0.0022 -0.332321,-0.05208 -0.468012,-0.111215 -0.141043,-0.06153 -0.3184,-0.08126 -0.414097,-0.04619 -0.103616,0.03796 -0.275992,0.0087 -0.452303,-0.07676 -0.156717,-0.07599 -0.506972,-0.189241 -0.778354,-0.251767 -0.271389,-0.06248 -0.533184,-0.143619 -0.581782,-0.180208 -0.04857,-0.03657 -0.222237,-0.04931 -0.385863,-0.02844 -0.196341,0.02509 -0.339093,-0.0036 -0.419757,-0.08411 -0.0672,-0.0672 -0.159415,-0.122252 -0.204833,-0.122252 -0.04539,0 -0.105704,-0.07272 -0.13385,-0.161617 -0.03258,-0.102522 -0.155101,-0.181089 -0.335411,-0.214909 -0.156244,-0.02931 -0.302401,-0.0829 -0.324772,-0.1191 -0.07369,-0.119258 -0.804412,-0.437437 -1.061881,-0.462383 -0.542167,-0.05251 -0.866015,-0.132138 -0.82269,-0.202224 0.04575,-0.07402 -0.125561,-0.110581 -0.403545,-0.08596 -0.08323,0.0077 -0.255453,-0.06087 -0.382757,-0.151451 -0.127303,-0.09068 -0.299761,-0.16484 -0.38324,-0.164863 -0.188325,-4.3e-5 -0.836973,-0.244652 -1.397286,-0.526928 -0.232741,-0.117244 -0.512267,-0.213163 -0.621165,-0.213163 -0.108883,0 -0.344067,-0.104825 -0.522594,-0.233067 -0.178521,-0.128194 -0.538022,-0.317775 -0.798865,-0.421306 -0.260843,-0.103521 -0.494325,-0.220688 -0.518834,-0.260355 -0.02458,-0.03971 -0.104278,-0.07215 -0.177161,-0.07215 -0.07292,0 -0.203423,-0.06415 -0.290029,-0.142483 -0.08662,-0.07841 -0.367057,-0.222297 -0.623252,-0.31984 -0.256196,-0.09747 -0.669348,-0.258582 -0.918117,-0.357879 -0.248771,-0.09935 -0.526327,-0.201918 -0.616787,-0.228056 -0.09046,-0.02612 -0.184428,-0.0773 -0.208835,-0.11379 -0.02435,-0.03644 -0.162185,-0.07521 -0.30624,-0.08618 -0.144033,-0.01094 -0.278989,-0.06458 -0.299898,-0.119013 -0.02095,-0.05447 -0.263411,-0.200209 -0.538895,-0.323855 -0.275497,-0.123633 -0.608451,-0.347268 -0.739903,-0.496988 -0.131445,-0.149713 -0.377587,-0.330117 -0.546972,-0.40089 -0.169393,-0.07069 -0.514181,-0.311266 -0.766201,-0.534427 -0.252015,-0.223155 -0.624743,-0.55347 -0.828291,-0.734026 -0.203524,-0.180552 -0.634683,-0.561454 -0.958096,-0.846459 -0.323426,-0.284989 -0.591725,-0.548275 -0.596226,-0.585084 -0.0043,-0.03688 -0.0978,-0.166332 -0.207431,-0.287832 -0.905055,-1.003465 -1.118646,-1.205354 -1.430138,-1.351809 -0.195081,-0.09166 -0.524711,-0.363718 -0.732534,-0.604429 -0.207809,-0.240704 -0.407144,-0.419539 -0.442964,-0.397407 -0.03586,0.02219 -0.08915,-0.08772 -0.118481,-0.244166 -0.02938,-0.15644 -0.105258,-0.304336 -0.168637,-0.328655 -0.063339,-0.02437 -0.1152725,-0.100871 -0.1152725,-0.170172 0,-0.06931 -0.046692,-0.125935 -0.1038365,-0.125935 -0.095949,0 -0.2284497,-0.187932 -0.3497829,-0.496056 -0.027299,-0.0693 -0.1595925,-0.198793 -0.29401,-0.287821 C 8.9678992,65.450191 8.9173091,65.364414 8.9499281,65.230912 8.9918876,65.058952 8.8308285,64.674985 8.5906313,64.374687 8.5272925,64.295406 8.386313,63.948 8.2773951,63.602574 8.1685109,63.257139 8.0293738,62.955322 7.9682529,62.931865 7.9071541,62.908383 7.6816416,62.540335 7.4671637,62.113932 7.252692,61.687522 7.0487818,61.33864 7.0140249,61.33864 c -0.034766,0 -0.089471,-0.119732 -0.1216477,-0.266072 C 6.8602293,60.926229 6.7854648,60.731955 6.7261695,60.640826 6.5808426,60.417396 6.3627077,59.33848 6.3601407,58.830395 6.3594119,58.604244 6.3194853,58.252679 6.2722047,58.049138 6.1530472,57.535861 6.0235366,56.506504 6.0321704,56.14128 6.0398472,55.827715 5.9367889,54.956435 5.7818808,54.019496 5.579366,52.794628 5.4744979,51.139788 5.5578016,50.483284 c 0.025891,-0.203534 0.026185,-0.404148 7.267e-4,-0.445802 -0.025312,-0.04168 -0.045598,-0.384053 -0.045093,-0.760883 7.12e-4,-0.534137 0.032432,-0.719916 0.1437915,-0.842946 0.080491,-0.08892 0.1337486,-0.259322 0.1220357,-0.390453 -0.011368,-0.127949 0.039499,-0.372329 0.1131433,-0.543053 0.073687,-0.170746 0.1571754,-0.448303 0.1856037,-0.616786 0.028436,-0.168492 0.1068988,-0.429219 0.1744051,-0.579389 0.067556,-0.150166 0.1011128,-0.329296 0.07478,-0.398099 -0.026406,-0.06872 0.026185,-0.229169 0.1167693,-0.356431 0.090576,-0.127273 0.1647612,-0.272689 0.1647612,-0.323164 0,-0.08881 0.5321372,-1.28705 0.7818084,-1.760408 0.067556,-0.12805 0.1227982,-0.286246 0.1227982,-0.351536 0,-0.06524 0.092553,-0.153902 0.205598,-0.196892 0.1130718,-0.04298 0.2055992,-0.138511 0.2055992,-0.21226 0,-0.07379 0.092542,-0.244021 0.2055897,-0.37841 0.1130706,-0.134367 0.2055907,-0.310975 0.2055907,-0.392424 0,-0.08147 0.055483,-0.194172 0.1233597,-0.250478 0.067861,-0.05622 0.1233586,-0.168529 0.1233586,-0.249395 0,-0.08081 0.1436632,-0.328751 0.3192377,-0.550879 0.1974228,-0.249767 0.3413973,-0.535011 0.3772963,-0.747525 0.031927,-0.189002 0.087831,-0.343659 0.1241505,-0.343659 0.036439,0 0.087189,-0.08322 0.1129992,-0.185031 0.025743,-0.101765 0.2333649,-0.468602 0.4612341,-0.815192 0.2278666,-0.346575 0.4143076,-0.66585 0.4143076,-0.709508 0,-0.04364 0.05185,-0.12241 0.115287,-0.175031 0.06341,-0.05266 0.140065,-0.195932 0.170346,-0.318465 0.03026,-0.122525 0.139015,-0.315288 0.241672,-0.428375 0.102627,-0.113071 0.237206,-0.335114 0.299047,-0.493425 0.06181,-0.158309 0.158535,-0.335003 0.214871,-0.392662 0.312582,-0.319921 0.689996,-0.84637 0.845163,-1.178948 0.09868,-0.211525 0.493453,-0.703347 0.892809,-1.112325 0.756752,-0.774987 0.862684,-0.866487 1.353241,-1.168976 0.169611,-0.104593 0.3084,-0.222689 0.3084,-0.262458 0,-0.121402 0.351645,-0.409128 0.699014,-0.571969 0.363594,-0.170449 0.781256,-0.520166 0.781256,-0.654156 0,-0.04734 0.08322,-0.08739 0.18503,-0.08881 0.101765,-7.26e-4 0.311267,-0.129461 0.46554,-0.284516 0.154279,-0.155037 0.308887,-0.264349 0.343585,-0.242902 0.03462,0.02153 0.0853,-0.03113 0.112567,-0.116884 0.02815,-0.0886 0.155408,-0.177066 0.295099,-0.205001 0.159496,-0.03193 0.272727,-0.120352 0.32286,-0.25221 0.0424,-0.11169 0.180623,-0.267257 0.307025,-0.345718 0.126411,-0.07849 0.326234,-0.230203 0.444062,-0.337209 0.117834,-0.107012 0.247359,-0.185451 0.287826,-0.17428 0.161146,0.04451 1.326913,-0.619543 2.894502,-1.648674 0.766223,-0.503024 1.44499,-0.830813 1.720393,-0.830813 0.128381,0 0.294022,-0.07113 0.368809,-0.158557 0.07862,-0.09177 0.300617,-0.183285 0.527263,-0.217264 0.215315,-0.03222 0.578764,-0.143302 0.807672,-0.246675 0.228922,-0.103405 0.601237,-0.213692 0.827388,-0.245104 0.226151,-0.0315 0.466703,-0.101534 0.534544,-0.155823 0.158041,-0.126424 0.668075,-0.271083 1.192445,-0.338212 0.226159,-0.02895 0.48055,-0.08981 0.565323,-0.13513 0.179684,-0.09616 0.363951,-0.13172 1.202787,-0.232201 0.33923,-0.04065 1.005349,-0.131028 1.480277,-0.200857 1.845974,-0.271468 3.219819,-0.334023 4.194107,-0.190927 0.06786,0.0099 0.585948,-0.01094 1.151329,-0.04517 1.003327,-0.06181 2.865186,0.05724 4.276341,0.273294 1.173687,0.179706 1.708589,0.252624 2.199859,0.299868 0.464658,0.04472 0.513962,0.03462 0.513584,-0.104047 0,-0.08443 0.05243,-0.320028 0.11697,-0.523569 0.106812,-0.33651 0.207016,-0.871069 0.37796,-2.014814 0.03375,-0.226144 0.101975,-0.614728 0.151487,-0.86349 0.04959,-0.248778 0.10472,-0.581833 0.122553,-0.740136 0.01789,-0.158317 0.09288,-0.425429 0.166528,-0.5936 0.07369,-0.168157 0.133994,-0.395479 0.133994,-0.50517 0,-0.109689 0.05229,-0.219509 0.116251,-0.244056 0.08434,-0.03236 0.104162,-0.134828 0.07215,-0.37313 -0.03367,-0.251046 0.01657,-0.474027 0.212704,-0.945334 0.141231,-0.339229 0.256776,-0.676169 0.256776,-0.748753 0,-0.07258 0.05332,-0.213925 0.118438,-0.314102 0.06517,-0.100219 0.25496,-0.570719 0.421823,-1.04564 0.166861,-0.474922 0.349404,-0.919005 0.405624,-0.986847 0.05622,-0.06786 0.254501,-0.437917 0.440606,-0.822369 0.331994,-0.685821 0.397946,-0.797467 0.854409,-1.446604 0.124351,-0.176834 0.354612,-0.506545 0.511714,-0.732702 0.646234,-0.930279 1.440334,-1.829065 2.107086,-2.384883 0.325542,-0.2713798 0.651282,-0.5634606 0.723857,-0.6490484 0.07258,-0.085643 0.221562,-0.2336204 0.331078,-0.3289535 0.220594,-0.1920123 0.33206,-0.3054037 0.728163,-0.7407387 0.148157,-0.1628552 0.294037,-0.2960811 0.324155,-0.2960811 0.0672,0 1.199585,-0.6647427 1.256801,-0.7378005 0.02262,-0.028793 0.35329,-0.2311912 0.734834,-0.4496169 0.381545,-0.2184141 0.733102,-0.4297203 0.781256,-0.4695618 0.442389,-0.3661103 0.906037,-0.6572388 1.112471,-0.6985116 0.13736,-0.027498 0.249745,-0.077961 0.249745,-0.1123227 0,-0.034333 0.0648,-0.084105 0.143924,-0.1106967 0.07917,-0.026548 0.199416,-0.085084 0.267272,-0.1299353 0.06786,-0.04488 0.328168,-0.171336 0.578487,-0.2809968 0.250333,-0.1096607 0.501359,-0.25506 0.557846,-0.3231127 0.05644,-0.068075 0.221723,-0.1714814 0.367218,-0.2298457 0.145509,-0.058334 0.364466,-0.1879255 0.486594,-0.2879138 0.238638,-0.1953791 1.464545,-0.6927518 1.70749,-0.6927518 0.08104,0 0.193109,-0.055126 0.249001,-0.1224529 0.05594,-0.067341 0.131432,-0.1040489 0.167839,-0.081587 0.06582,0.04065 0.917354,-0.1561711 1.061779,-0.2454236 0.04153,-0.025671 0.09891,-0.00878 0.12736,0.037096 0.03434,0.055572 0.112409,0.050406 0.231845,-0.015267 0.09901,-0.054478 0.217039,-0.1066822 0.26227,-0.1160496 0.04517,-0.00993 0.452309,-0.1151718 0.904611,-0.2351698 0.966512,-0.2564069 1.844039,-0.4553574 1.919947,-0.4352772 0.0296,0.00777 0.183284,-0.02888 0.341586,-0.081472 0.437575,-0.1455447 1.774504,-0.3573391 1.915095,-0.303375 0.06829,0.026188 0.146864,0.01108 0.174537,-0.033743 0.03017,-0.04865 0.292908,-0.063054 0.654575,-0.035714 0.407851,0.030836 0.623013,0.015339 0.661995,-0.047786 0.03796,-0.061312 0.10625,-0.067414 0.198908,-0.017886 0.07763,0.0416 0.269672,0.059572 0.42676,0.03993 0.15708,-0.019641 0.580167,-0.056363 0.940175,-0.081688 0.36001,-0.02531 0.714746,-0.078177 0.788305,-0.117546 0.07356,-0.03934 0.297098,-0.057385 0.496753,-0.03993 0.429982,0.037527 2.459167,0.1497493 2.871258,0.1589066 0.158316,0.0036 0.331957,0.03498 0.385886,0.069961 0.05396,0.03498 0.238944,0.078623 0.411189,0.097041 0.172223,0.018404 0.627695,0.07281 1.012155,0.1208267 0.384467,0.048003 0.939563,0.087717 1.233564,0.088264 0.674383,7.266e-4 1.975361,0.2248268 2.138176,0.3676534 0.06791,0.059572 0.289886,0.1333023 0.493423,0.1639601 0.203551,0.030692 0.536605,0.1061353 0.740142,0.1678222 0.203536,0.0616 0.573614,0.135029 0.822375,0.1630737 0.550405,0.062033 1.162871,0.1889428 1.603629,0.3323133 0.180917,0.058909 0.532489,0.1493132 0.781251,0.2010384 0.248776,0.051787 0.618854,0.1505262 0.822376,0.2195761 0.203551,0.069097 0.543397,0.1568547 0.755237,0.1951389 0.211824,0.038261 0.463622,0.1116032 0.559541,0.1629356 0.09598,0.051341 0.25564,0.1023074 0.354984,0.1132149 0.436383,0.048003 1.998743,0.5308853 2.565494,0.7928479 0.271381,0.1254458 0.634854,0.2868 0.807727,0.3585766 0.172859,0.071789 0.290952,0.1682884 0.262418,0.2144565 -0.02892,0.046693 0.02317,0.08399 0.117416,0.08399 0.0931,0 0.169333,0.034549 0.169333,0.076752 0,0.04219 0.08317,0.1020771 0.185032,0.1331153 0.242517,0.073903 1.776803,0.9380317 1.836188,1.0341136 0.02532,0.04095 0.175204,0.1283664 0.333184,0.1943615 0.272792,0.113992 0.429218,0.2196708 1.04092,0.7031592 0.145332,0.1148848 0.364078,0.2519764 0.486085,0.3046687 0.183751,0.079386 1.017135,0.7153484 1.849569,1.4115343 0.099,0.082783 0.228502,0.1750813 0.287829,0.2051249 0.28885,0.1463028 0.756933,0.4577427 0.689765,0.458929 -0.121877,0.0021 0.304492,0.4229477 0.508373,0.5016987 0.102018,0.0395 0.17611,0.105819 0.16447,0.147532 -0.01151,0.04167 0.01597,0.08356 0.06115,0.0931 0.04518,0.0099 0.21595,0.138021 0.379361,0.285659 0.163421,0.14764 0.348463,0.300866 0.411181,0.34051 0.06278,0.03957 0.260107,0.23749 0.438608,0.439684 0.17848,0.202186 0.367918,0.373973 0.42093,0.381762 0.22727,0.03332 0.83413,0.643543 0.97724,0.982592 0.0585,0.138439 0.25908,0.382534 0.44589,0.542443 0.1868,0.159903 0.33964,0.333317 0.33964,0.385391 0,0.05208 0.12936,0.237832 0.28742,0.412804 0.15806,0.174956 0.34653,0.461873 0.41883,0.637565 0.0722,0.175706 0.21513,0.411988 0.31744,0.525053 0.10232,0.113086 0.35716,0.575665 0.56636,1.027975 0.20919,0.452303 0.49226,1.025909 0.62901,1.274678 0.13684,0.248771 0.34329,0.655851 0.45894,0.904606 0.11569,0.248784 0.39308,0.823985 0.61649,1.27825 0.22342,0.454251 0.40621,0.86731 0.40621,0.917878 0,0.126036 0.81382,2.02013 0.90972,2.117232 0.0425,0.04298 0.0773,0.161407 0.0773,0.263199 0,0.101764 0.0492,0.214645 0.10907,0.25082 0.06,0.03622 0.15731,0.24154 0.21628,0.45639 0.059,0.214841 0.13483,0.390621 0.16847,0.390621 0.0337,0 0.0845,0.115719 0.11267,0.257177 l 0.0514,0.257171 0.4317,-0.05753 c 0.23744,-0.03172 0.69076,-0.08399 1.00738,-0.116251 0.31663,-0.03222 0.85321,-0.136539 1.19244,-0.231736 1.13205,-0.317681 1.7686,-0.441728 2.0162,-0.392884 0.13497,0.02662 0.54065,0.01137 0.90157,-0.03375 0.40788,-0.05098 0.69134,-0.05295 0.74893,-0.0058 0.10211,0.08477 0.60966,0.01094 0.60966,-0.08903 0,-0.03441 0.2868,-0.0576 0.63734,-0.05141 0.35052,0.0065 1.14617,-0.01614 1.76811,-0.04959 0.6816,-0.03658 1.13075,-0.03048 1.13075,0.01534 0,0.04189 0.13008,0.05491 0.28911,0.02916 0.159,-0.02574 0.50132,-0.0022 0.7607,0.05222 0.33415,0.07026 0.57697,0.07521 0.83319,0.01703 0.288,-0.06545 0.4003,-0.0568 0.55176,0.04247 0.11669,0.07643 0.2789,0.10592 0.41966,0.07633 0.12619,-0.02655 0.2819,-0.01454 0.34599,0.02662 0.071,0.0456 0.1996,0.04298 0.32893,-0.0065 0.25301,-0.09704 1.4273,-0.09112 2.06283,0.01094 0.24874,0.03978 0.74835,0.11379 1.11019,0.164528 1.21963,0.170986 2.41514,0.378504 3.33062,0.578123 0.24877,0.05424 0.68098,0.111662 0.9605,0.127576 0.27947,0.01593 0.77907,0.118784 1.1102,0.228565 0.33111,0.10979 0.82405,0.243228 1.09544,0.296546 0.50252,0.0988 1.33141,0.327986 1.48028,0.409399 0.0453,0.02481 0.19326,0.05033 0.32895,0.0568 0.13569,0.0065 0.56127,0.132007 0.94574,0.278902 0.38445,0.14689 0.79958,0.28525 0.92251,0.307447 0.12289,0.02219 0.26625,0.09188 0.31847,0.154775 0.0523,0.06291 0.14464,0.11441 0.20536,0.11441 0.26896,0 0.92632,0.288066 1.24021,0.543468 0.18854,0.153408 0.38636,0.278909 0.43961,0.278909 0.0532,0 0.19506,0.06917 0.31512,0.153742 0.12001,0.08454 0.38481,0.237395 0.58836,0.339652 0.20353,0.102196 0.39679,0.231482 0.42945,0.287187 0.0327,0.05571 0.32665,0.282173 0.65333,0.503285 0.32663,0.221104 0.8051,0.605542 1.06326,0.854312 0.25814,0.24877 0.68005,0.637339 0.93757,0.863497 0.92669,0.813782 2.08573,2.103232 2.304,2.563236 0.0762,0.160929 0.29447,0.445677 0.48465,0.632779 0.38316,0.376942 0.87121,0.985814 0.87121,1.086864 0,0.03571 0.0691,0.141504 0.15347,0.234887 0.0845,0.09342 0.2187,0.344808 0.29838,0.558734 0.0797,0.213932 0.17295,0.371638 0.20724,0.350438 0.0344,-0.02117 0.0825,0.03884 0.1072,0.133302 0.0246,0.09451 0.0781,0.151336 0.11856,0.126309 0.0405,-0.02502 0.14131,0.110007 0.22409,0.30011 0.0828,0.190099 0.23712,0.450244 0.34308,0.57811 0.10591,0.127849 0.19264,0.305985 0.19264,0.395871 0,0.0899 0.0919,0.262822 0.20412,0.384316 0.5479,0.592997 0.72335,0.83191 0.91716,1.248874 0.11554,0.248769 0.37608,0.780174 0.57881,1.180882 0.54295,1.073256 1.09599,2.93656 1.09599,3.692623 0,0.152681 0.0555,0.46468 0.12346,0.69334 0.0679,0.22867 0.14015,0.643239 0.1607,0.921297 0.0204,0.27805 0.0625,0.546392 0.0933,0.596314 0.12591,0.203757 0.28159,1.409939 0.21439,1.661364 -0.038,0.142555 -0.0426,0.351703 -0.0105,0.464784 0.0867,0.299789 0.0871,0.72105 7.2e-4,0.885163 -0.0618,0.117575 -0.12965,0.645065 -0.26692,2.075383 -0.007,0.06786 -0.0403,0.142195 -0.075,0.165218 -0.0348,0.02305 -0.0851,0.356091 -0.1118,0.740144 -0.0268,0.384045 -0.0868,0.920306 -0.13325,1.191695 -0.0465,0.271381 -0.10533,0.630779 -0.1308,0.798674 -0.0255,0.16788 -0.098,0.348184 -0.16125,0.400688 -0.0633,0.05251 -0.11497,0.199779 -0.11497,0.327251 0,0.127474 -0.037,0.254668 -0.0823,0.282611 -0.0452,0.028 -0.0823,0.141662 -0.0823,0.25269 0,0.111013 -0.034,0.266108 -0.0753,0.344655 -0.0414,0.0785 -0.13497,0.27232 -0.20788,0.430622 -0.073,0.158316 -0.16276,0.343347 -0.19971,0.411189 -0.20214,0.371122 -0.25723,0.503249 -0.25723,0.616785 0,0.0691 -0.037,0.199104 -0.0823,0.288946 -0.0453,0.0898 -0.12001,0.23818 -0.1663,0.32963 -0.0462,0.09144 -0.10807,0.341253 -0.13727,0.555106 -0.0293,0.21386 -0.12087,0.499844 -0.20349,0.635542 -0.0825,0.135691 -0.15042,0.36246 -0.15059,0.503918 0,0.141461 -0.0558,0.303266 -0.1236,0.35958 -0.0679,0.05622 -0.12332,0.148826 -0.12332,0.205592 0,0.05681 -0.0495,0.144229 -0.10979,0.194347 -0.0605,0.0501 -0.16096,0.248943 -0.22348,0.441813 -0.0625,0.192877 -0.16091,0.443212 -0.21865,0.556284 -0.0577,0.113085 -0.10518,0.277222 -0.10547,0.364772 0,0.08751 -0.0715,0.235569 -0.15813,0.328948 -0.18773,0.202208 -0.66476,1.106413 -0.66476,1.260046 0,0.107013 -0.23312,0.516477 -0.33908,0.595592 -0.0302,0.02262 -0.0965,0.189148 -0.14717,0.370069 -0.0507,0.180927 -0.14699,0.400795 -0.2141,0.488593 -0.0671,0.08783 -0.12201,0.240537 -0.12201,0.339435 0,0.09889 -0.0546,0.225139 -0.12131,0.280537 -0.13799,0.114496 -0.43729,0.718766 -0.70904,1.431338 -0.12059,0.316292 -0.38036,0.711282 -0.74972,1.140116 -0.31084,0.360897 -0.71555,0.883243 -0.89935,1.160785 -0.18377,0.27755 -0.38559,0.53416 -0.44847,0.570262 -0.0629,0.03607 -0.18812,0.22762 -0.27832,0.425618 -0.0902,0.198005 -0.27123,0.436367 -0.4023,0.529694 -0.13108,0.09331 -0.26091,0.259752 -0.28855,0.369841 -0.0277,0.110078 -0.152,0.311412 -0.27643,0.447408 -0.12432,0.135979 -0.4112,0.451647 -0.63734,0.701465 -0.22616,0.24981 -0.45745,0.455968 -0.51398,0.458114 -0.0566,0.0022 -0.10275,0.05942 -0.10275,0.127259 0,0.06786 -0.0464,0.123819 -0.10274,0.124381 -0.0566,7.19e-4 -0.18567,0.128986 -0.28698,0.285373 -0.10127,0.156405 -0.28634,0.346475 -0.41118,0.422375 -0.1249,0.07587 -0.3811,0.243547 -0.56941,0.372518 -0.18832,0.128986 -0.36801,0.234515 -0.3993,0.234515 -0.0312,0 -0.1733,0.0931 -0.31552,0.206835 -0.14217,0.113762 -0.29849,0.238814 -0.34727,0.27789 -0.0488,0.03906 -0.25232,0.173452 -0.45229,0.29859 -0.2,0.125158 -0.54337,0.37694 -0.7631,0.559534 -0.46377,0.385464 -1.65084,1.094965 -2.47885,1.481601 -0.77256,0.36075 -2.66391,0.958474 -3.03284,0.958474 -0.11324,0 -0.22606,0.03281 -0.25079,0.07266 -0.0246,0.04 -0.21376,0.09803 -0.42007,0.129016 -0.20628,0.03091 -0.56755,0.14587 -0.8028,0.255402 -0.23525,0.109531 -0.50177,0.199313 -0.59222,0.199546 -0.0905,0 -0.33101,0.05491 -0.53454,0.121546 -1.50743,0.493482 -2.74776,0.86651 -2.88117,0.86651 -0.0871,0 -0.29783,0.05382 -0.46836,0.11969 -0.17051,0.06582 -0.67418,0.153742 -1.11924,0.195343 -0.53661,0.0501 -0.85196,0.118438 -0.9362,0.20266 -0.14159,0.141534 -0.13194,-0.689923 -0.12591,10.954435 0.007,12.287605 -0.0324,22.864395 -0.089,24.218955 -0.0311,0.74629 -0.0524,1.4124 -0.0474,1.48026 0.005,0.0679 0.0211,0.53044 0.0357,1.02798 0.0147,0.49754 0.0523,1.10815 0.0836,1.35691 0.0313,0.24878 0.0508,0.67434 0.043,0.94573 -0.0279,0.99601 0.0144,6.71814 0.10264,13.98038 0.0364,2.98718 -0.0593,5.72268 -0.23517,6.7163 -0.15726,0.88886 -1.19953,0.9385 -2.89245,0.13785 -0.19099,-0.0903 -0.3865,-0.14001 -0.43444,-0.11036 -0.048,0.0297 -0.48382,-0.0409 -0.96856,-0.15647 -8.00799,-1.91137 -21.042401,-3.00998 -35.708936,-3.00975 -15.886134,0 -31.011578,1.31788 -42.722403,3.72171 -0.497533,0.10212 -1.03399,0.17312 -1.192111,0.15776 z m 5.057277,-17.90378 c 1.084632,-0.22596 2.302836,-0.43112 2.919434,-0.49167 0.339237,-0.0333 0.699756,-0.0919 0.801161,-0.13036 0.101428,-0.0384 0.54549,-0.0913 0.986847,-0.11742 0.441365,-0.0262 1.222546,-0.0814 1.735956,-0.12288 0.513403,-0.0413 0.957486,-0.0703 0.986855,-0.0641 0.02938,0.005 0.18289,-0.0156 0.341193,-0.0482 0.269294,-0.0555 1.238453,-0.12086 1.891466,-0.12762 0.158311,-10e-4 0.416651,-0.0404 0.574094,-0.086 0.157431,-0.0457 0.916068,-0.10518 1.685869,-0.13238 0.769786,-0.027 1.426101,-0.0739 1.45848,-0.10442 0.03236,-0.0302 0.06938,-3.04043 0.08224,-6.68915 l 0.02333,-6.63403 0.241533,-0.25206 c 0.239839,-0.25032 0.247671,-0.25207 1.115381,-0.25207 0.854392,0 0.878858,0.005 1.099525,0.23556 0.194245,0.20273 0.225547,0.30302 0.224559,0.71958 -7.13e-4,0.2662 0.03083,1.77925 0.06982,3.36232 0.03906,1.58308 0.07445,4.3708 0.07861,6.19497 l 0.0078,3.31664 0.801815,-0.0465 c 0.440994,-0.0254 1.819515,-0.068 3.063343,-0.0942 3.144573,-0.0665 5.286569,-0.17723 5.674543,-0.29347 l 0.328801,-0.0984 0,-12.7749 0,-12.774915 1.356913,0 1.356922,0 0,12.781985 0,12.782 0.431749,-0.0406 c 1.122806,-0.10546 3.412282,-0.21198 5.201507,-0.24195 1.229751,-0.0206 2.060934,-0.0689 2.205129,-0.1282 0.169592,-0.0698 1.037496,-0.08 3.248395,-0.0386 5.156529,0.0968 7.481765,0.19711 8.048803,0.34767 0.279829,0.0744 0.566636,0.11296 0.63733,0.0858 0.115834,-0.0445 0.12864,-1.31232 0.12864,-12.79875 l 0,-12.749389 1.35691,0 1.356924,0 0,12.819819 0,12.8198 2.035378,0.0487 c 1.119457,0.0268 3.01607,0.093 4.214654,0.14712 1.19863,0.0541 2.34585,0.10116 2.54939,0.10442 l 0.37006,0.005 0.0411,-6.53789 c 0.0433,-6.89337 0.0472,-6.95986 0.41444,-7.15639 0.1911,-0.10232 1.56538,-0.10533 1.83165,-0.004 0.11641,0.0443 0.23965,0.18769 0.29318,0.34122 0.0652,0.18726 0.0923,2.17537 0.0923,6.78561 0,4.0226 0.03,6.53924 0.078,6.56897 0.0429,0.0266 1.08511,0.0855 2.31601,0.1308 1.23092,0.0453 2.38928,0.11756 2.57416,0.16022 0.18488,0.0427 0.47274,0.0786 0.63971,0.0796 0.16692,7.2e-4 0.3233,0.034 0.34749,0.0731 0.0422,0.0683 0.21934,0.11224 1.03482,0.25684 0.39937,0.0708 1.26276,0.34814 1.72699,0.55463 0.37968,0.16889 0.86876,0.28318 1.27468,0.29789 l 0.32894,0.0115 0.0144,-0.86349 c 0.0149,-0.90373 0.0144,-2.03324 -0.004,-7.19578 -0.005,-1.71876 -7.1e-4,-3.60612 0.0115,-4.19412 0.0115,-0.58799 0.007,-1.90175 -0.0129,-2.91943 -0.0207,-1.11644 -0.003,-1.90999 0.0458,-2.00068 0.0442,-0.0828 0.0534,-0.21222 0.0202,-0.28783 -0.0331,-0.0757 -0.068,-0.91464 -0.0778,-1.86447 -0.0105,-0.94985 -0.0231,-2.11557 -0.0297,-2.59049 -0.0195,-1.42065 -0.0275,-2.480868 -0.0491,-6.620122 -0.0116,-2.171073 -0.0315,-3.984405 -0.0449,-4.029637 -0.0129,-0.04517 -0.003,-0.137748 0.0246,-0.205597 0.0269,-0.06786 0.068,-0.659958 0.0918,-1.315793 0.0238,-0.655857 0.0828,-2.034909 0.13108,-3.064593 0.0577,-1.226985 0.0603,-1.924071 0.007,-2.02278 -0.0523,-0.0978 -0.0526,-0.178758 -7.2e-4,-0.230731 0.0903,-0.09036 0.11282,-2.527584 0.0281,-3.057278 -0.0327,-0.204164 -0.019,-0.383594 0.034,-0.447349 0.055,-0.0661 0.0668,-0.25624 0.0311,-0.502165 -0.0898,-0.619798 0.027,-3.70517 0.15186,-4.006283 l 0.10706,-0.258334 0.66428,0.04996 c 0.36534,0.0275 1.36903,0.0184 2.23038,-0.02008 1.22395,-0.05484 1.6264,-0.101313 1.84208,-0.212814 0.1518,-0.0785 0.42772,-0.159975 0.61318,-0.181058 0.18549,-0.0211 0.50376,-0.115762 0.70731,-0.210355 0.20352,-0.09462 0.38855,-0.178499 0.41117,-0.186434 0.0226,-0.0078 0.0965,-0.03469 0.16448,-0.05934 0.0679,-0.02465 0.28988,-0.09056 0.49343,-0.146345 0.20352,-0.05579 0.46257,-0.129891 0.57565,-0.164629 0.45619,-0.140151 0.88052,-0.241803 1.19245,-0.285687 0.82308,-0.115777 1.69468,-0.366867 3.04279,-0.876589 0.22615,-0.08553 0.48967,-0.170492 0.58561,-0.188848 0.096,-0.01833 0.363,-0.128943 0.59347,-0.245738 0.2305,-0.116797 0.48508,-0.212915 0.56574,-0.213577 0.0806,-7.2e-4 0.22489,-0.04691 0.32053,-0.102743 0.59492,-0.347566 0.90426,-0.502369 0.96813,-0.484522 0.0402,0.01122 0.15115,-0.05266 0.24672,-0.14175 0.0957,-0.08915 0.27852,-0.188134 0.40656,-0.219932 0.12806,-0.03179 0.25297,-0.110351 0.27762,-0.174572 0.0669,-0.174215 0.46481,-0.551738 0.68996,-0.654533 0.10863,-0.04967 0.60151,-0.412817 1.09509,-0.807067 0.49359,-0.394265 0.98394,-0.773518 1.08966,-0.842792 0.10576,-0.06931 0.19222,-0.16036 0.19222,-0.202434 0,-0.04212 0.2313,-0.310125 0.51398,-0.59568 0.28269,-0.285564 0.62787,-0.64625 0.76709,-0.801555 0.13914,-0.155299 0.35698,-0.364068 0.48395,-0.463947 0.12691,-0.0999 0.20602,-0.181583 0.17566,-0.181583 -0.0304,0 0.12187,-0.22106 0.33841,-0.491248 0.99311,-1.239435 1.17666,-1.493412 1.65358,-2.288094 0.27948,-0.465714 0.50816,-0.87664 0.50816,-0.913165 0,-0.0365 0.10116,-0.173581 0.22487,-0.304567 0.23396,-0.247788 0.28399,-0.35697 0.69325,-1.512839 0.13612,-0.384467 0.29357,-0.754536 0.3499,-0.822377 0.0906,-0.109214 0.18297,-0.310102 0.55499,-1.207987 0.0527,-0.127144 0.0989,-0.255839 0.10264,-0.285993 0.004,-0.03017 0.0347,-0.08256 0.0685,-0.11651 0.034,-0.03388 0.0617,-0.151575 0.0617,-0.261439 0,-0.109862 0.0693,-0.297972 0.15426,-0.41804 0.0849,-0.12005 0.18221,-0.347281 0.21639,-0.504943 0.0343,-0.157662 0.11886,-0.328146 0.18821,-0.378862 0.0809,-0.05912 0.13152,-0.244034 0.14101,-0.515197 0.008,-0.262989 0.0671,-0.48071 0.15292,-0.575542 0.0758,-0.08389 0.11525,-0.211991 0.0874,-0.284639 -0.028,-0.07272 0.0129,-0.253796 0.0917,-0.402528 0.0782,-0.14873 0.17156,-0.436942 0.2073,-0.640481 0.0357,-0.203539 0.12591,-0.592109 0.20047,-0.86349 0.0745,-0.27139 0.14475,-0.604446 0.15604,-0.740135 0.0116,-0.135691 0.0804,-0.385195 0.15378,-0.554458 0.0732,-0.16927 0.1724,-0.589375 0.22025,-0.933587 0.0479,-0.344206 0.10892,-0.661144 0.13554,-0.704309 0.13483,-0.218281 0.2244,-1.157753 0.22984,-2.412962 0.007,-1.882943 -0.0707,-2.913667 -0.28292,-3.700691 -0.0976,-0.36184 -0.21068,-0.796666 -0.25127,-0.966285 -0.0406,-0.169604 -0.10864,-0.447167 -0.15136,-0.616787 -0.0427,-0.169596 -0.11971,-0.484615 -0.17135,-0.699995 -0.0515,-0.215402 -0.21812,-0.566967 -0.37011,-0.781256 -0.15198,-0.214304 -0.4172,-0.644577 -0.58935,-0.956155 -0.17217,-0.311579 -0.4488,-0.811163 -0.61476,-1.110203 -0.16596,-0.299034 -0.39128,-0.72873 -0.5007,-0.954889 -0.10935,-0.226151 -0.26043,-0.461968 -0.33558,-0.524049 -0.0751,-0.06204 -0.1367,-0.198661 -0.1367,-0.303535 0,-0.104815 -0.037,-0.213547 -0.0823,-0.241504 -0.0453,-0.02793 -0.0821,-0.126122 -0.0821,-0.218137 0,-0.09814 -0.068,-0.185102 -0.16448,-0.210325 -0.15136,-0.03957 -0.19705,-0.141663 -0.18631,-0.416141 0.003,-0.05746 -0.12432,-0.223991 -0.28118,-0.370061 -0.1569,-0.146083 -0.33889,-0.367378 -0.40442,-0.491766 -0.0656,-0.124381 -0.17061,-0.22615 -0.23348,-0.22615 -0.0629,0 -0.2562,-0.152849 -0.42963,-0.339667 -0.17343,-0.186827 -0.44306,-0.455132 -0.59918,-0.596226 -0.33871,-0.306117 -0.537,-0.513155 -0.86747,-0.905761 -0.13569,-0.161212 -0.29517,-0.293877 -0.35437,-0.294808 -0.0591,-7.26e-4 -0.0885,-0.03265 -0.0651,-0.07048 0.0233,-0.03782 -0.1039,-0.230646 -0.28298,-0.428463 -0.17901,-0.197808 -0.32548,-0.388896 -0.32548,-0.424634 0,-0.03571 -0.0555,-0.06502 -0.12318,-0.06502 -0.0677,0 -0.30017,-0.127173 -0.51651,-0.28261 -0.21636,-0.155429 -0.49187,-0.295797 -0.61225,-0.311906 -0.12029,-0.01614 -0.28578,-0.08959 -0.36752,-0.163298 -0.0817,-0.07368 -0.25966,-0.161533 -0.39536,-0.195205 -0.13569,-0.03367 -0.4095,-0.147582 -0.60847,-0.253112 -0.19897,-0.105488 -0.45115,-0.191905 -0.56042,-0.191905 -0.18436,0 -0.56473,-0.135777 -1.38049,-0.492753 -0.1809,-0.07916 -0.67826,-0.243919 -1.10521,-0.366089 -0.42696,-0.122165 -0.87843,-0.274959 -1.00329,-0.339529 -0.1249,-0.06458 -0.41931,-0.158637 -0.65431,-0.209039 -0.23501,-0.05048 -0.57918,-0.160606 -0.7648,-0.244921 -0.18565,-0.08432 -0.44359,-0.154099 -0.57322,-0.155088 -0.22475,-0.0022 -0.45273,-0.06262 -1.57354,-0.420111 -0.27138,-0.08651 -0.65314,-0.157386 -0.84835,-0.157379 -0.1952,1.5e-5 -0.4335,-0.04196 -0.52955,-0.09342 -0.0961,-0.05141 -0.41745,-0.125474 -0.7142,-0.164608 -0.29674,-0.03912 -0.74304,-0.109647 -0.99181,-0.156585 -0.59132,-0.111719 -2.45624,-0.259112 -3.08254,-0.243651 -0.27064,0.0065 -0.54176,0.05338 -0.6025,0.103847 -0.082,0.06808 -0.12691,0.06502 -0.1745,-0.01208 -0.0999,-0.161737 -1.70255,-0.139131 -3.0484,0.04298 -0.45796,0.06196 -1.23889,0.11215 -1.71836,0.110423 -0.19879,-7.12e-4 -0.44963,0.05643 -0.55742,0.127101 -0.10778,0.07063 -0.23792,0.102522 -0.28913,0.07084 -0.13813,-0.0853 -1.0735,-0.03505 -1.19299,0.06408 -0.0568,0.04712 -0.37596,0.09462 -0.70932,0.105703 -0.33336,0.01094 -0.64712,0.04539 -0.69728,0.07643 -0.05,0.03098 -0.18012,0.03396 -0.28884,0.0065 -0.11368,-0.02851 -0.33384,0.01122 -0.51778,0.09353 -0.17604,0.07872 -0.50509,0.152142 -0.73126,0.163176 -1.12207,0.05469 -1.5824,0.215241 -1.36573,0.476303 0.0514,0.06196 0.0754,0.237779 0.0532,0.390628 -0.11295,0.779059 -0.0167,2.722606 0.15732,3.175847 0.091,0.236777 0.13972,1.839886 0.0591,1.937678 -0.0448,0.05426 -0.0984,0.672241 -0.11913,1.373321 -0.0525,1.773034 -0.28574,3.802547 -0.55849,4.861548 -0.0422,0.163554 -0.0767,0.461932 -0.0767,0.663072 0,0.219205 -0.0804,0.532311 -0.20067,0.781664 -0.11036,0.228776 -0.1815,0.48924 -0.1581,0.578791 0.0235,0.0899 -0.0156,0.220938 -0.0872,0.292567 -0.0714,0.07134 -0.1298,0.197701 -0.1298,0.280743 0,0.08301 -0.0694,0.280479 -0.15419,0.438716 -0.0848,0.15823 -0.1542,0.38601 -0.1542,0.50618 0,0.120179 -0.0743,0.323238 -0.16482,0.45124 -0.14531,0.20519 -0.25155,0.67428 -0.3057,1.349947 -0.0105,0.116971 -0.0505,0.264989 -0.0915,0.328953 -0.18185,0.284116 -0.27853,0.513403 -0.32827,0.778617 -0.0293,0.156884 -0.0863,0.305543 -0.12649,0.330321 -0.0402,0.02481 -0.073,0.116898 -0.073,0.204696 0,0.08783 -0.0322,0.159612 -0.0715,0.159612 -0.0724,0 -0.50409,1.131337 -0.50409,1.320985 0,0.05644 -0.0925,0.223947 -0.20559,0.372206 -0.1131,0.148244 -0.20559,0.315645 -0.20559,0.371987 0,0.146782 -0.16608,0.652351 -0.29834,0.908066 -0.062,0.12005 -0.11396,0.26808 -0.11526,0.328948 -7.2e-4,0.06087 -0.14766,0.329448 -0.32533,0.596835 -0.17765,0.267389 -0.34504,0.586547 -0.372,0.709248 -0.027,0.122697 -0.13958,0.30819 -0.25034,0.412229 -0.11066,0.104057 -0.20132,0.258384 -0.20132,0.343012 0,0.08463 -0.0925,0.246391 -0.20558,0.359478 -0.11309,0.113071 -0.2056,0.244843 -0.2056,0.292822 0,0.04793 -0.1039,0.222071 -0.23074,0.386881 -0.12692,0.16482 -0.372,0.614228 -0.54461,0.998688 -0.3435,0.765125 -0.51131,1.031691 -0.9493,1.508052 -0.15957,0.17359 -0.31517,0.359675 -0.34572,0.413517 -0.10011,0.176644 -1.334676,1.405576 -1.692372,1.684849 -0.192467,0.150259 -0.330681,0.304278 -0.307198,0.342285 0.02345,0.03803 -0.03565,0.09397 -0.131378,0.124353 -0.231103,0.07336 -0.736444,0.419007 -0.686125,0.469313 0.0495,0.04946 -0.66169,0.638584 -0.770732,0.638584 -0.04375,0 -0.185579,0.05527 -0.315126,0.122841 -0.129503,0.06758 -0.291053,0.123532 -0.358912,0.124352 -0.06791,7.26e-4 -0.284404,0.09353 -0.48125,0.206092 -0.196845,0.112539 -0.415216,0.204609 -0.48522,0.204609 -0.07008,0 -0.316061,0.09024 -0.546721,0.200557 -0.88179,0.421705 -2.251146,0.622359 -3.750797,0.549593 -0.396108,-0.01919 -0.526705,-0.593811 -0.161333,-0.709779 0.0872,-0.02765 0.308075,-0.17532 0.490992,-0.328124 0.182902,-0.152818 0.544547,-0.398316 0.803669,-0.545556 0.259094,-0.147225 0.822967,-0.593324 1.253034,-0.991333 0.430052,-0.398003 0.929648,-0.823163 1.110205,-0.944802 0.180542,-0.121632 0.376625,-0.288414 0.435722,-0.370599 0.05914,-0.08225 0.1608,-0.149458 0.226012,-0.149458 0.147318,0 1.484255,-1.340427 1.763594,-1.768183 0.1131,-0.17316 0.340565,-0.447517 0.505539,-0.609688 0.164958,-0.162157 0.377488,-0.45015 0.472284,-0.63995 0.09469,-0.189802 0.230834,-0.377828 0.302319,-0.417829 0.135974,-0.07609 0.265775,-0.277811 0.486215,-0.755583 0.07225,-0.156716 0.170487,-0.309056 0.218168,-0.338518 0.07971,-0.04931 0.928811,-1.888876 1.036541,-2.245838 0.0258,-0.08553 0.18691,-0.410105 0.35797,-0.721305 0.4831,-0.878887 1.16981,-2.684482 1.26164,-3.317341 0.0328,-0.226145 0.10965,-0.48906 0.17066,-0.584241 0.0776,-0.120927 0.091,-0.261991 0.0445,-0.468383 -0.0453,-0.201314 -0.0336,-0.342554 0.0368,-0.443728 0.0972,-0.139331 0.14029,-0.344364 0.25195,-1.196923 0.0252,-0.192223 0.079,-0.423524 0.11973,-0.513984 0.0407,-0.09047 0.1105,-0.386519 0.1552,-0.657901 0.15825,-0.960831 0.47034,-2.097064 0.57602,-2.097064 0.0345,0 0.065,-0.04626 0.068,-0.102743 0.004,-0.05658 0.047,-0.417357 0.0981,-0.80181 0.0509,-0.384475 0.0972,-0.976584 0.10264,-1.315808 0.005,-0.339237 0.0375,-0.672293 0.0714,-0.740134 0.034,-0.06786 0.0813,-0.456427 0.10576,-0.86349 0.0242,-0.40708 0.0669,-0.799025 0.0946,-0.87099 0.0669,-0.172972 0.10159,-0.819905 0.0457,-0.854132 -0.0242,-0.01484 -0.0173,-0.446803 0.0149,-0.960096 0.14726,-2.339122 0.0988,-4.552158 -0.10201,-4.676416 -0.05,-0.03091 -0.10421,-0.126525 -0.12029,-0.212463 -0.0161,-0.08596 -0.0343,-0.156238 -0.0403,-0.156238 -0.005,0 -0.024,-0.203539 -0.04,-0.452301 -0.016,-0.24877 -0.0708,-0.674345 -0.12203,-0.945734 -0.0511,-0.27138 -0.12346,-0.715466 -0.16078,-0.986853 -0.0372,-0.271382 -0.11511,-0.622953 -0.17285,-0.781249 -0.0578,-0.158316 -0.15177,-0.41735 -0.20889,-0.575666 -0.0571,-0.158295 -0.14202,-0.583892 -0.18872,-0.945732 -0.12332,-0.955791 -0.30147,-1.843748 -0.44534,-2.220413 -0.43828,-1.14752 -0.86496,-1.987802 -1.18973,-2.342924 -0.10305,-0.11261 -0.18721,-0.250545 -0.18721,-0.306487 0,-0.05594 -0.0888,-0.159881 -0.19716,-0.230922 -0.1085,-0.07106 -0.27891,-0.32171 -0.37884,-0.557011 -0.0999,-0.235301 -0.24297,-0.501831 -0.317897,-0.592292 -0.07487,-0.09046 -0.207536,-0.294 -0.294694,-0.452303 -0.222942,-0.405064 -0.891107,-1.232087 -0.996047,-1.232896 -0.04816,-7.12e-4 -0.148772,-0.129044 -0.223598,-0.285955 -0.07482,-0.156907 -0.196414,-0.351203 -0.270188,-0.431749 -0.508358,-0.555092 -0.775553,-0.894605 -0.775553,-0.985466 0,-0.05803 -0.112668,-0.205888 -0.250474,-0.328633 -0.137706,-0.122755 -0.32904,-0.354336 -0.42506,-0.514624 -0.09598,-0.160288 -0.426412,-0.5548 -0.734228,-0.876699 -0.307815,-0.321883 -0.596738,-0.682693 -0.64202,-0.801816 -0.04547,-0.118424 -0.139001,-0.215888 -0.20794,-0.215888 -0.06892,0 -0.125331,-0.03258 -0.125331,-0.07236 0,-0.08071 -0.630106,-0.750047 -0.706068,-0.750047 -0.02662,0 -0.249524,-0.212791 -0.495465,-0.472871 -0.751048,-0.794223 -0.793339,-0.831824 -1.054102,-0.937165 -0.139,-0.05615 -0.271122,-0.122626 -0.293727,-0.147807 -0.02259,-0.02524 -0.170644,-0.116754 -0.328954,-0.203503 -0.158311,-0.08674 -0.389404,-0.241454 -0.513554,-0.343828 -0.124179,-0.102427 -0.309154,-0.211466 -0.411173,-0.242457 -0.102017,-0.03105 -0.296506,-0.139029 -0.432182,-0.2401 -0.292708,-0.217998 -1.03505,-0.6195352 -1.145373,-0.6195352 -0.04274,0 -0.154742,-0.072435 -0.249021,-0.161038 C 89.288319,9.6899735 88.965884,9.5252022 88.666126,9.4123766 88.366369,9.2995509 87.886011,9.0986315 87.598687,8.9659082 87.311346,8.833167 86.761705,8.6031946 86.377238,8.4548402 85.992784,8.3064867 85.410795,8.0599135 85.083958,7.906892 84.430541,7.6009867 83.861602,7.425368 83.168039,7.315489 82.699999,7.2413606 82.30897,7.1453671 81.52523,6.9122998 81.276453,6.8382977 80.889165,6.7826956 80.664563,6.7886961 80.439946,6.79448 79.995879,6.7441918 79.677718,6.6763731 79.359556,6.608586 78.803165,6.5233285 78.441303,6.4868774 78.079471,6.4505125 77.679233,6.3797494 77.551917,6.3297682 77.424572,6.2797324 77.195696,6.2388666 77.04327,6.2388666 c -0.152397,0 -0.368308,-0.034619 -0.479767,-0.077083 -0.11146,-0.042338 -0.622706,-0.1003349 -1.136109,-0.1287128 -0.513408,-0.028362 -1.155512,-0.092206 -1.426901,-0.141806 -0.478623,-0.087389 -1.431964,-0.09494 -3.906281,-0.030907 -1.386084,0.03586 -2.250369,0.1984481 -3.741802,0.7037334 -0.361857,0.1225972 -0.935457,0.3066256 -1.274688,0.4089635 -0.339229,0.1022906 -0.986854,0.3624749 -1.439162,0.5780728 -0.452303,0.2156063 -1.04442,0.4803546 -1.315793,0.5883491 -0.271382,0.1080061 -0.648054,0.2989668 -0.837047,0.4243887 -0.315616,0.2094459 -0.60899,0.3513834 -1.566156,0.7577506 -0.191001,0.081027 -0.327594,0.1792688 -0.303543,0.218187 0.024,0.03891 -0.0099,0.07069 -0.07446,0.07069 -0.06502,0 -0.160499,0.051056 -0.212274,0.1134451 -0.05178,0.062403 -0.203824,0.1353744 -0.337885,0.1621779 -0.134022,0.026837 -0.307958,0.1238051 -0.386483,0.2155091 -0.0785,0.09166 -0.188238,0.166771 -0.243788,0.166771 -0.05557,0 -0.130583,0.04881 -0.166761,0.108437 -0.03614,0.05965 -0.269301,0.2277 -0.51807,0.373478 -0.248772,0.145778 -0.619601,0.387369 -0.82408,0.536871 -0.204464,0.149495 -0.505954,0.316096 -0.669973,0.370235 -0.628452,0.207402 -2.593754,1.90748 -3.17368,2.745371 -0.214428,0.309811 -0.547796,0.79098 -0.740813,1.069271 -0.193007,0.27829 -0.435915,0.676496 -0.539772,0.884931 -0.103847,0.208434 -0.28456,0.505808 -0.401552,0.660846 -0.274378,0.363595 -1.272934,2.344982 -1.343975,2.666757 -0.05965,0.270349 -0.342868,1.082552 -0.602147,1.726982 -0.17138,0.426005 -0.501664,1.689847 -0.666198,2.549373 -0.052,0.271375 -0.164717,0.752478 -0.250595,1.06909 -0.08584,0.316618 -0.172638,0.808332 -0.192805,1.092717 -0.02015,0.284371 -0.08619,0.576729 -0.146724,0.649646 -0.130209,0.156897 -0.121647,2.875753 0.01281,4.048612 0.04451,0.388176 0.08115,1.011078 0.08159,1.384237 l 7.12e-4,0.678469 -2.703275,0 -2.703276,0 -0.05637,-1.007415 c -0.131404,-2.348911 -0.164652,-2.755322 -0.230915,-2.821584 -0.02829,-0.02829 -0.488805,-0.08498 -1.023415,-0.125936 -0.534594,-0.04102 -1.136094,-0.135561 -1.336638,-0.21018 -0.257279,-0.09572 -0.693107,-0.142309 -1.480276,-0.158273 -0.613602,-0.01238 -1.966792,-0.0445 -3.007094,-0.07141 -2.510448,-0.06465 -4.690591,0.09388 -5.588366,0.406419 -0.224079,0.07794 -0.538639,0.153704 -0.699029,0.168193 -0.603135,0.05447 -1.208314,0.192572 -1.566293,0.357398 -0.203526,0.09375 -0.423153,0.171203 -0.48802,0.172208 -0.06496,7.26e-4 -0.268408,0.07369 -0.452303,0.161617 -0.183894,0.08794 -0.443828,0.171177 -0.577621,0.185038 -0.13382,0.01382 -0.307114,0.08069 -0.385145,0.148564 -0.15847,0.13782 -0.621673,0.480704 -1.057458,0.782827 -0.158303,0.109747 -0.583884,0.344533 -0.945726,0.521722 -0.361858,0.177204 -0.75042,0.422368 -0.863498,0.544793 -0.113085,0.122423 -0.337594,0.290313 -0.498929,0.373063 -0.161329,0.08278 -0.343543,0.210973 -0.404927,0.284931 -0.06138,0.07391 -0.303005,0.261505 -0.536938,0.416789 -0.23394,0.155269 -0.677078,0.504558 -0.984751,0.776158 -0.307666,0.271613 -0.60931,0.49383 -0.67033,0.49383 -0.06095,0 -0.249803,0.121978 -0.419537,0.271039 -0.352344,0.309411 -0.709189,0.551003 -1.008316,0.682622 -0.447633,0.196958 -3.304666,3.037953 -3.464918,3.445453 -0.05353,0.136021 -0.161894,0.321318 -0.240899,0.411785 -0.335311,0.383924 -0.916394,1.329642 -0.917843,1.493762 -7.26e-4,0.09792 -0.10789,0.294451 -0.237969,0.436818 -0.130037,0.142382 -0.236435,0.346911 -0.236435,0.454543 0,0.107546 -0.03695,0.218521 -0.08225,0.246471 -0.04517,0.02793 -0.08223,0.140469 -0.08223,0.25 0,0.143878 -0.05716,0.213502 -0.205605,0.250776 -0.113086,0.02844 -0.20559,0.09913 -0.20559,0.157248 0,0.05812 -0.05513,0.126784 -0.122438,0.152622 -0.09604,0.0368 -0.10471,0.09353 -0.04036,0.263011 0.0702,0.184701 0.05819,0.222259 -0.08313,0.259228 -0.09178,0.024 -0.165286,0.112136 -0.165286,0.198099 0,0.0852 -0.03367,0.154892 -0.07489,0.154892 -0.15676,0 -0.547549,1.031204 -0.507969,1.340469 0.01094,0.08146 -0.07763,0.223963 -0.195627,0.316801 -0.156848,0.123359 -0.191583,0.196426 -0.129173,0.271644 0.06174,0.07435 0.03288,0.159537 -0.104047,0.307346 -0.104162,0.112467 -0.175161,0.247409 -0.157668,0.299897 0.01752,0.05251 -0.02895,0.0954 -0.103301,0.0954 -0.07775,0 -0.111199,0.03862 -0.07884,0.09102 0.06227,0.100766 -0.07962,0.632591 -0.273956,1.02727 -0.07098,0.143959 -0.106136,0.356124 -0.08092,0.487779 0.04372,0.228922 -0.07357,0.614357 -0.187007,0.614357 -0.03179,0 -0.07698,0.231293 -0.100334,0.513985 -0.02334,0.28269 -0.106798,0.708496 -0.185364,0.946256 -0.114683,0.347107 -0.122727,0.456462 -0.04088,0.555104 0.0685,0.08268 0.07533,0.156478 0.02072,0.225628 -0.0491,0.06225 -0.06479,0.540581 -0.03957,1.212997 0.04088,1.093359 0.04596,1.319896 0.03826,1.72699 -0.0099,0.500776 0.03665,1.285282 0.08212,1.398036 0.08258,0.204774 0.238057,0.952888 0.21498,1.034229 -0.0171,0.06051 0.08411,0.846217 0.131647,1.021712 0.0065,0.02262 0.04058,0.189147 0.07642,0.370068 0.03601,0.180928 0.102522,0.373973 0.147981,0.428985 0.04552,0.05505 0.06603,0.147538 0.0456,0.205591 -0.02036,0.0581 -0.0043,0.195125 0.03665,0.30459 0.04058,0.10943 0.07697,0.358605 0.08081,0.553665 0.0043,0.195058 0.05752,0.396496 0.119172,0.447638 0.0616,0.05113 0.09057,0.127662 0.06451,0.170049 -0.06008,0.09725 0.194621,0.644439 0.299998,0.644439 0.04313,0 0.0784,0.04626 0.07852,0.102742 4.3e-5,0.05658 0.08881,0.205889 0.197117,0.331886 0.117201,0.136266 0.180448,0.292515 0.156098,0.385609 -0.04757,0.181794 0.201926,0.988935 0.305644,0.988935 0.03862,0 0.0944,0.07665 0.12418,0.170432 0.03019,0.09517 0.101628,0.152179 0.161691,0.129115 0.07048,-0.02705 0.121632,0.04865 0.148374,0.220217 0.08487,0.544718 0.278698,0.873476 0.776806,1.317923 0.277876,0.247948 0.590676,0.477889 0.695092,0.510958 0.104394,0.03309 0.389509,0.237992 0.633539,0.455386 0.244034,0.217403 0.467108,0.387815 0.495713,0.378693 0.02865,-0.0087 0.190986,0.122194 0.36086,0.291813 0.169866,0.169617 0.342132,0.308385 0.382795,0.308385 0.04065,0 0.09748,0.074 0.126165,0.164476 0.02873,0.09046 0.116841,0.164477 0.195831,0.164477 0.07895,0 0.289302,0.169067 0.467328,0.375712 0.178034,0.206638 0.480972,0.545804 0.673203,0.753684 0.192224,0.207889 0.3495,0.40889 0.3495,0.446666 0,0.03774 0.04626,0.06887 0.102743,0.0691 0.05658,0 0.287839,0.09737 0.513983,0.216035 0.226159,0.118625 0.550291,0.286021 0.720296,0.371986 0.170011,0.08596 0.354691,0.229301 0.41041,0.318512 0.05571,0.08926 0.164556,0.162214 0.241874,0.162214 0.07731,0 0.306102,0.111719 0.508429,0.248261 0.202311,0.136541 0.509474,0.306364 0.682584,0.377391 0.173095,0.07106 0.444243,0.253563 0.602552,0.405632 0.158303,0.152063 0.431197,0.33622 0.606415,0.409225 0.175235,0.07302 0.43428,0.244006 0.575674,0.379987 0.346809,0.33358 1.421461,0.840125 1.766742,0.832772 0.151852,-0.0036 0.400468,0.04603 0.552457,0.109531 0.152005,0.0635 0.417343,0.11546 0.589645,0.11546 0.172318,0 0.404541,0.06393 0.516072,0.142036 0.219111,0.153457 0.211313,0.150819 0.697318,0.236231 0.358831,0.06306 1.155222,0.399603 1.229312,0.519445 0.02546,0.0411 0.19407,0.09979 0.374751,0.130323 0.180687,0.03048 0.328517,0.08926 0.328517,0.130512 0,0.04123 0.07186,0.075 0.159618,0.075 0.08783,0 0.181882,0.036 0.209067,0.08005 0.02719,0.044 0.205163,0.119072 0.395487,0.166848 0.190317,0.04779 0.442614,0.14031 0.560646,0.205664 0.118036,0.06539 0.238313,0.09517 0.267265,0.0661 0.02895,-0.02895 0.05266,-0.0099 0.05266,0.04334 0,0.05274 0.06662,0.09595 0.148017,0.09595 0.08147,0 0.183197,0.03352 0.226158,0.07466 0.04298,0.0411 0.263156,0.09047 0.489308,0.109675 0.226164,0.01927 0.688752,0.13123 1.027967,0.248828 1.287741,0.446389 1.727265,0.545497 2.938998,0.662658 0.191669,0.01855 0.396999,0.07391 0.456272,0.123157 0.13113,0.108769 0.609907,0.145937 0.853608,0.06625 0.09792,-0.032 0.198826,-0.0248 0.224137,0.01622 0.02531,0.04087 0.181248,0.05957 0.346531,0.04131 0.202617,-0.0224 0.349907,0.01165 0.452239,0.104279 0.118509,0.107243 0.239815,0.125661 0.553619,0.08399 0.221017,-0.02931 0.656781,-0.01789 0.968367,0.02552 0.311564,0.04334 0.986353,0.09024 1.499499,0.104162 0.513169,0.01395 0.946737,0.04748 0.963501,0.07455 0.04771,0.07708 1.696429,-0.0099 1.939177,-0.102522 0.148993,-0.0568 0.271664,-0.0549 0.390628,0.0058 0.500951,0.255701 0.492114,0.254248 0.601563,0.09956 0.125216,-0.176964 0.785614,-0.350968 1.3034,-0.343419 0.958446,0.01396 2.263629,-0.09659 2.380228,-0.201576 0.07193,-0.06479 0.415174,-0.131402 0.822464,-0.159663 0.895862,-0.06217 1.305829,-0.128367 1.36253,-0.220093 0.02488,-0.04021 0.244376,-0.07314 0.487801,-0.07314 0.243437,0 0.465473,-0.03695 0.49343,-0.08224 0.02793,-0.04517 0.157473,-0.08224 0.287826,-0.08224 0.130352,0 0.259882,-0.03695 0.28784,-0.08224 0.02793,-0.04532 0.264508,-0.08225 0.525685,-0.08225 0.261186,0 0.499518,-0.02465 0.529635,-0.0547 0.03019,-0.03019 0.284393,-0.06734 0.565047,-0.08256 0.280654,-0.01535 0.547127,-0.06474 0.59216,-0.109718 0.04509,-0.04509 0.164835,-0.0819 0.266197,-0.0819 0.101312,0 0.20716,-0.03709 0.235103,-0.08225 0.028,-0.04517 0.118122,-0.08224 0.200391,-0.08224 0.08224,0 0.195612,-0.05549 0.251919,-0.123345 0.05637,-0.06786 0.190864,-0.123359 0.299018,-0.123359 0.108106,0 0.260902,-0.03388 0.339442,-0.07533 0.323819,-0.170798 0.751349,-0.335856 0.869948,-0.335856 0.0696,0 0.146507,-0.03215 0.170784,-0.07149 0.02436,-0.03927 0.194629,-0.0955 0.378547,-0.124899 0.183917,-0.02938 0.524712,-0.145299 0.75735,-0.257526 0.232625,-0.112208 0.487408,-0.204034 0.566168,-0.204034 0.07872,0 0.19212,-0.04779 0.251889,-0.106251 0.05978,-0.05848 0.238188,-0.157407 0.396497,-0.219881 0.15831,-0.06248 0.353617,-0.180747 0.434026,-0.262807 0.08038,-0.08202 0.237687,-0.17215 0.349507,-0.200223 0.11182,-0.02808 0.203313,-0.08399 0.203313,-0.124352 0,-0.04036 0.04779,-0.07334 0.106136,-0.07334 0.05833,0 0.440819,-0.21279 0.849839,-0.472869 0.750304,-0.477066 0.961974,-0.630837 1.641453,-1.192445 0.205205,-0.169603 0.401595,-0.308379 0.436412,-0.308379 0.03484,0 0.182876,-0.166536 0.329056,-0.370067 0.14617,-0.203547 0.318973,-0.370068 0.384002,-0.370068 0.06502,0 0.118251,-0.03753 0.118251,-0.08333 0,-0.09901 0.475714,-0.638823 0.973406,-1.104456 0.196143,-0.183502 0.403211,-0.444659 0.460134,-0.580357 0.05688,-0.135676 0.266518,-0.417196 0.465751,-0.625557 0.199235,-0.208368 0.471969,-0.587694 0.606066,-0.84293 0.134122,-0.25525 0.272887,-0.464091 0.308393,-0.464091 0.03548,0 0.06458,-0.04903 0.06458,-0.108884 0,-0.05986 0.147413,-0.254181 0.327564,-0.431749 0.180171,-0.177576 0.328197,-0.372758 0.328954,-0.433764 7.12e-4,-0.06095 0.106034,-0.209037 0.233919,-0.328953 0.127878,-0.119921 0.300844,-0.397487 0.384358,-0.616822 0.08354,-0.219338 0.28944,-0.542014 0.457627,-0.717073 0.168208,-0.175059 0.47284,-0.540479 0.676962,-0.812021 0.377951,-0.502791 1.350972,-1.320491 1.571306,-1.320491 0.06677,0 0.144352,-0.03709 0.172308,-0.08225 0.06029,-0.09747 0.42511,-0.110539 0.482769,-0.01724 0.02219,0.03571 -0.02676,0.452069 -0.108567,0.925172 -0.12805,0.740688 -0.217344,0.991574 -0.642707,1.805915 -0.27168,0.520158 -0.551846,1.056753 -0.622568,1.192444 -0.07069,0.135691 -0.241404,0.500521 -0.379297,0.810718 -0.137893,0.310211 -0.526654,0.980142 -0.863942,1.488758 -0.337275,0.508601 -0.77535,1.235486 -0.973508,1.615284 -0.198151,0.379791 -0.439859,0.820065 -0.537126,0.978375 -0.456703,0.74326 -2.54442,2.927781 -3.372775,3.529149 -0.275004,0.199663 -0.480908,0.393937 -0.457546,0.431749 0.02334,0.03782 0.0043,0.06872 -0.0432,0.06872 -0.04712,0 -0.259461,0.166543 -0.471874,0.370076 -0.212426,0.203546 -0.416613,0.370068 -0.453756,0.370068 -0.03716,0 -0.06756,0.06603 -0.06756,0.146744 0,0.08069 -0.108667,0.210945 -0.241505,0.289412 -0.132813,0.0785 -0.401123,0.292072 -0.596219,0.474695 -0.314531,0.294422 -0.76356,0.629195 -1.45264,1.082981 -0.119833,0.07895 -0.26229,0.143662 -0.316554,0.143916 -0.08904,7.19e-4 -0.33467,0.159859 -1.109016,0.720004 -0.140699,0.101764 -0.340657,0.185037 -0.444374,0.185037 -0.103732,0 -0.21178,0.03753 -0.240123,0.08345 -0.07962,0.128799 -0.671378,0.410018 -0.862829,0.410018 -0.09407,0 -0.27784,0.07893 -0.408331,0.1754 -0.130481,0.0965 -0.304771,0.181794 -0.387297,0.189584 -0.08256,0.0078 -0.242559,0.05447 -0.355638,0.103847 -0.113085,0.04931 -0.372133,0.1349 -0.575658,0.190192 -0.203547,0.05527 -0.425596,0.121763 -0.49343,0.147771 -0.06786,0.02596 -0.164593,0.04996 -0.215009,0.05317 -0.05048,0.0036 -0.142914,0.04648 -0.205605,0.09616 -0.138354,0.109531 -0.50709,0.206391 -0.895179,0.235067 -0.429211,0.03172 -1.154263,0.174936 -1.480277,0.292408 -0.912139,0.328619 -1.141229,0.400345 -1.43632,0.449647 -0.179351,0.02996 -0.422986,0.104615 -0.541404,0.165815 -0.249155,0.128856 -1.232438,0.368002 -1.513034,0.368002 -0.226718,0 -1.032113,0.250233 -1.032783,0.320888 0,0.02705 -0.149363,0.05484 -0.331346,0.06174 -0.182004,0.0065 -0.384285,0.05681 -0.449517,0.110927 -0.171749,0.142541 -0.667107,0.255643 -1.233485,0.281622 -0.271382,0.01238 -0.585949,0.05375 -0.699021,0.09177 -0.113071,0.03803 -0.242594,0.07346 -0.287834,0.07872 -0.04517,0.0058 -0.137748,0.02989 -0.205589,0.0549 -0.06786,0.02503 -0.271382,0.0931 -0.452303,0.151517 -0.388891,0.125489 -0.555693,0.331972 -0.630568,0.78058 -0.338214,2.026458 -0.486405,3.370871 -0.522835,4.743087 -0.01599,0.602677 -0.06888,1.225303 -0.117532,1.383598 -0.04865,0.158317 -0.106351,0.824436 -0.128295,1.480278 -0.02196,0.655849 -0.05658,1.284969 -0.07697,1.398034 -0.02036,0.113085 -0.06022,0.890234 -0.08838,1.72699 -0.02814,0.836776 -0.06742,1.74344 -0.08707,2.01482 -0.01972,0.271381 -0.03375,0.681015 -0.03134,0.910293 0.0022,0.229278 -0.03752,0.525338 -0.08883,0.6579 -0.05534,0.143245 -0.106581,0.991755 -0.126222,2.091375 -0.01818,1.017699 -0.05208,2.201918 -0.07533,2.631605 -0.08608,1.58895 -0.118424,2.10583 -0.15455,2.46712 -0.08696,0.86963 -0.204062,3.76156 -0.25138,6.20893 -0.03891,2.01421 -0.07369,2.65255 -0.250865,4.60531 -0.06153,0.67845 -0.117675,1.77017 -0.124682,2.426 -0.0065,0.65584 -0.01425,1.22945 -0.01614,1.27469 -0.01505,0.37226 0.118266,6.52027 0.143117,6.59956 0.04065,0.12964 0.184847,0.12605 0.900858,-0.0231 z"
     id="path4700"
     inkscape:connector-curvature="0" />
</svg>
